<svg xmlns="http://www.w3.org/2000/svg" width="512" height="512" viewBox="0 0 512 512" version="1.1">
	<path d="M 237.007 68.593 C 217.357 77.114, 221.675 111.067, 242.398 110.978 C 248.683 110.951, 254.961 108.218, 259.260 103.637 L 262.500 100.185 273 105.852 L 283.500 111.519 283.796 117.113 L 284.091 122.706 275.147 123.381 C 270.228 123.753, 263.570 124.757, 260.352 125.613 C 256.116 126.739, 251.049 127.077, 242 126.835 L 229.500 126.500 229.771 133.971 C 229.919 138.079, 230.428 141.828, 230.901 142.301 C 231.374 142.774, 238.738 143.416, 247.265 143.727 L 262.769 144.293 264.344 147.596 C 265.615 150.260, 266.920 151.196, 271.094 152.435 C 279.887 155.047, 287.883 155.414, 295.953 153.579 L 303.258 151.917 311.135 157.089 L 319.012 162.260 316.506 164.582 C 313.481 167.385, 313.445 167.991, 316 173 C 317.100 175.156, 318 177.163, 318 177.460 C 318 177.757, 313.233 178, 307.407 178 C 294.795 178, 281.585 180.471, 266.928 185.573 C 243.165 193.844, 229.164 203.448, 219.652 218 C 212.918 228.303, 214.481 227.715, 205.991 223.146 C 197.040 218.330, 187.515 215.631, 172 213.516 C 165.675 212.653, 156.898 211.094, 152.497 210.051 C 142.026 207.570, 125.045 205.463, 117.500 205.709 C 114.200 205.817, 99.800 207.477, 85.500 209.398 C 71.200 211.319, 54.325 213.389, 48 213.998 C 30.988 215.636, 32.208 215.057, 32.765 221.233 C 33.061 224.517, 33.970 227.302, 35.181 228.630 C 37.037 230.666, 37.109 232.265, 36.811 265.047 C 36.572 291.364, 36.209 299.432, 35.250 299.751 C 33.583 300.306, 33.665 303.160, 35.418 305.559 C 36.635 307.224, 38.451 307.571, 48.168 308 L 59.500 308.500 59.811 311.193 C 60.106 313.751, 59.882 313.901, 55.311 314.193 C 50.895 314.475, 50.474 314.726, 50.184 317.250 C 49.879 319.895, 50.042 320, 54.434 320 C 59.648 320, 59.657 320.026, 57.345 328.268 C 55.484 334.900, 53.932 336, 46.435 336 C 42.667 336, 42 336.301, 42 338 C 42 339.909, 42.667 340, 56.625 340 L 71.250 340 70.590 343.250 C 66.491 363.431, 67.783 379.861, 74.558 393.707 C 78.117 400.982, 87.542 410.895, 94.705 414.897 L 100.500 418.134 67.250 417.556 C 45.124 417.171, 34 417.316, 34 417.989 C 34 418.545, 34.337 419.004, 34.750 419.009 C 35.163 419.013, 40.450 419.443, 46.500 419.963 C 52.550 420.483, 71 421.393, 87.500 421.986 C 118.157 423.087, 159.795 425.529, 207 428.997 C 221.575 430.067, 248.800 432.065, 267.500 433.436 C 352.931 439.702, 474.692 445.515, 471 443.153 C 469.234 442.023, 453.451 439.627, 436.367 437.895 L 424.234 436.665 435.367 431.213 C 445.404 426.299, 447.440 424.814, 456.042 416.131 C 464.508 407.586, 466.231 405.204, 471.326 395 C 479.432 378.768, 482.135 367.563, 482.183 350 C 482.269 318.680, 472.750 294.045, 453.764 276.453 C 440.835 264.473, 428.589 259.327, 409.165 257.711 C 397.490 256.739, 396.781 256.555, 395.915 254.277 C 393.798 248.708, 392.894 249.350, 419.247 237.704 L 423.993 235.606 437.247 238.311 C 453.793 241.689, 455 241.712, 455 238.650 C 455 233.284, 446.286 224.665, 435.250 219.115 C 431.813 217.386, 429 215.785, 429 215.557 C 429 215.330, 430.573 212.502, 432.497 209.274 C 434.430 206.028, 436.466 200.847, 437.050 197.686 C 439.473 184.582, 431.706 169.817, 417.634 160.771 C 413.119 157.868, 412.901 157.545, 414.612 156.294 C 416.027 155.260, 416.212 154.559, 415.406 153.283 C 413.722 150.613, 412.211 150.669, 409.586 153.501 L 407.128 156.154 401.314 154.098 C 395.889 152.179, 377.425 149, 371.706 149 C 369.940 149, 368.205 147.784, 366 145 C 364.258 142.800, 363.126 141, 363.485 141 C 365.461 141, 385.079 146.423, 390.547 148.481 C 394.068 149.807, 397.191 150.500, 397.486 150.022 C 398.243 148.798, 393.440 145.585, 384.526 141.352 C 377.646 138.085, 376.923 137.472, 377.197 135.131 C 377.457 132.906, 378.675 132.049, 385.710 129.143 L 393.920 125.751 396.677 129.028 C 407.795 142.241, 425.907 133.395, 425.978 114.718 C 426.024 102.589, 419.020 94, 409.084 94 C 406.010 94, 404.232 94.735, 401.497 97.137 C 396.595 101.440, 395.710 103.414, 395.061 111.482 L 394.500 118.464 389 121.154 C 381.463 124.840, 378.260 125.477, 375.281 123.883 C 373.090 122.710, 372.635 122.779, 371.399 124.468 C 370.618 125.537, 370 128.717, 370 131.670 L 370 136.957 363.201 136.832 C 354.150 136.664, 347.171 139.064, 342.173 144.062 C 337.645 148.590, 336.372 148.753, 326.564 146.062 C 322.679 144.996, 317.605 143.634, 315.290 143.034 L 311.080 141.944 310.790 133.729 L 310.500 125.514 305.500 124.814 C 302.750 124.430, 298.415 123.844, 295.867 123.514 L 291.233 122.912 290.367 114.243 C 289.510 105.669, 289.467 105.566, 286.500 104.950 C 282.840 104.191, 276.005 100.758, 270.096 96.709 C 263.382 92.110, 261.886 90.304, 262.559 87.619 C 262.884 86.326, 262.654 83.429, 262.048 81.180 C 259.128 70.334, 247.023 64.250, 237.007 68.593 M 293 145 C 294.939 146.253, 296 146.253, 296 145 C 296 144.450, 294.988 144.007, 293.750 144.015 C 291.931 144.028, 291.787 144.216, 293 145 M 272.036 147.453 C 273.732 149.137, 283.457 151.840, 288.821 152.118 C 290.844 152.223, 294.881 151.970, 297.790 151.555 C 302.069 150.945, 302.866 150.544, 301.961 149.454 C 301.200 148.536, 298.396 148.109, 293.171 148.116 C 288.952 148.122, 283.076 147.648, 280.114 147.063 C 277.151 146.478, 273.792 146, 272.649 146 C 270.827 146, 270.751 146.179, 272.036 147.453 M 309 146.905 C 309 148.356, 331.020 155.981, 335.250 155.994 C 339.870 156.009, 335.807 153.962, 323.686 150.168 C 309.158 145.620, 309 145.585, 309 146.905 M 323.627 159.470 C 323.968 160.358, 324.675 160.942, 325.198 160.767 C 326.697 160.268, 326.267 158.534, 324.556 158.177 C 323.487 157.955, 323.199 158.356, 323.627 159.470 M 389.301 162.014 C 381.853 164.450, 375.160 169.289, 372.687 174.027 C 370.444 178.325, 370.831 188.734, 373.439 194.230 C 375.789 199.182, 394.795 214.417, 401.359 216.610 C 410.943 219.812, 420.927 216.829, 426.550 209.083 C 430.828 203.191, 432.343 197.638, 431.814 189.789 C 431.275 181.808, 428.872 176.801, 422.536 170.461 C 413.120 161.040, 401.393 158.059, 389.301 162.014 M 393.559 165.266 C 387.452 168.727, 384.491 175.360, 384.535 185.479 C 384.579 195.599, 387.344 202.373, 393.724 207.988 C 399.157 212.770, 403.712 214.378, 410.092 213.765 C 416.716 213.129, 422.160 209.346, 425.129 203.316 C 428.640 196.185, 428.478 184.486, 424.770 177.380 C 418.374 165.123, 403.796 159.465, 393.559 165.266 M 320.562 168.581 C 318.758 170.385, 319.306 171.808, 322.219 172.885 C 323.771 173.459, 325.443 177.347, 329.504 189.827 C 334.555 205.349, 336.196 209, 338.122 209 C 339.822 209, 338.952 205.015, 334.045 190.330 C 331.319 182.174, 328.602 173.588, 328.006 171.250 C 327.111 167.738, 326.508 167, 324.533 167 C 323.218 167, 321.432 167.711, 320.562 168.581 M 398.500 168.529 C 390.633 171.269, 386.861 180.073, 389.007 190.686 C 393.359 212.204, 414.819 218.042, 422.447 199.782 C 424.437 195.018, 424.439 185.989, 422.451 181.218 C 418.327 171.319, 407.285 165.469, 398.500 168.529 M 288.555 184.614 C 278.160 186.490, 261.476 192.115, 252.832 196.658 C 249.043 198.648, 246.089 200.423, 246.267 200.601 C 246.445 200.778, 251.070 200.002, 256.545 198.876 C 264.015 197.339, 269.246 196.913, 277.500 197.168 C 287.178 197.467, 289.200 197.852, 294.323 200.363 C 304.954 205.576, 308.769 214.737, 304.077 223.790 C 302.082 227.639, 293.690 236.143, 283.750 244.386 C 280.577 247.018, 278 249.976, 278 250.987 C 278 251.995, 280.062 254.773, 282.582 257.160 C 285.102 259.547, 287.567 262.239, 288.060 263.143 C 289.239 265.306, 287.298 271.694, 280.088 289.372 C 273.245 306.150, 269.686 316.558, 270.232 318.196 C 270.451 318.852, 272.725 317.169, 275.304 314.443 C 279.990 309.490, 282.616 304.333, 300.070 265.811 C 306.967 250.589, 309.755 246.395, 320.536 235.019 C 325.074 230.231, 329.550 224.838, 330.482 223.035 C 332.308 219.504, 331.949 214.736, 329.502 210.003 C 327.487 206.106, 319.287 198.930, 311.769 194.482 C 305.114 190.545, 303.954 188.832, 307.479 188.149 C 308.795 187.893, 309.123 188.236, 308.677 189.399 C 308.339 190.279, 308.321 191, 308.637 191 C 309.720 191, 317 184.833, 317 183.916 C 317 182.518, 297.517 182.996, 288.555 184.614 M 258.113 203.076 C 250.332 204.444, 235.705 209.530, 230.988 212.508 C 224.641 216.514, 217 230.328, 217 237.795 C 217 239.851, 217.353 240.131, 219.250 239.578 C 238.433 233.994, 241.417 233.984, 258.500 239.446 C 264.550 241.380, 270.489 242.971, 271.697 242.982 C 275.357 243.012, 295 225.663, 295 222.400 C 295 221.718, 270.464 222.599, 262 223.584 C 258.813 223.955, 257.951 223.819, 259.048 223.118 C 259.899 222.573, 268.224 221.628, 277.548 221.017 C 286.871 220.407, 295.121 219.695, 295.879 219.436 C 297.706 218.811, 296.826 211.979, 294.512 208.818 L 292.815 206.500 293.611 209 C 294.049 210.375, 294.428 212.850, 294.454 214.500 L 294.500 217.500 280.500 218.189 C 272.800 218.569, 265.526 219.061, 264.336 219.284 C 262.386 219.650, 262.133 219.187, 261.775 214.595 C 261.557 211.793, 261.406 209.447, 261.439 209.382 C 261.473 209.316, 265.206 209, 269.737 208.678 C 277.121 208.154, 277.946 208.270, 277.708 209.797 C 277.562 210.734, 277.091 212.063, 276.662 212.750 C 276.233 213.438, 276.310 214, 276.834 214 C 277.779 214, 278.696 212.384, 278.799 210.539 C 278.873 209.192, 281.878 208.156, 286 208.055 C 291.964 207.909, 292.684 206.500, 287.831 204.473 C 282.755 202.353, 266.558 201.591, 258.113 203.076 M 258.665 207.259 C 259.148 208.048, 289.121 207.093, 290 206.260 C 290.275 205.999, 283.233 205.947, 274.351 206.143 C 265.469 206.339, 258.410 206.841, 258.665 207.259 M 290.158 212 C 290.158 213.375, 290.385 213.938, 290.662 213.250 C 290.940 212.563, 290.940 211.438, 290.662 210.750 C 290.385 210.063, 290.158 210.625, 290.158 212 M 339.635 218.073 C 336.579 220.476, 335.860 224.772, 338.750 223.357 C 339.712 222.886, 343.762 222.540, 347.750 222.589 C 354.677 222.673, 355 222.574, 355 220.374 C 355 217.428, 352.290 216, 346.701 216 C 343.732 216, 341.400 216.684, 339.635 218.073 M 417.149 222.069 C 415.855 222.587, 410.568 223.530, 405.399 224.166 C 400.229 224.801, 396 225.603, 396 225.949 C 396 226.294, 401.738 227.095, 408.750 227.729 C 415.762 228.363, 425.945 230.033, 431.378 231.441 C 436.811 232.848, 442.886 233.982, 444.878 233.960 L 448.500 233.921 443.720 229.521 C 436.128 222.533, 424.283 219.211, 417.149 222.069 M 110.537 251.250 C 110.157 265.688, 109.994 282.225, 110.173 288 L 110.500 298.500 113.750 298.813 L 117 299.127 117 262.063 L 117 225 114.113 225 L 111.227 225 110.537 251.250 M 77.500 227.617 C 47.688 230.148, 49 229.940, 49 232.119 C 49 235.455, 52.961 242.056, 57.963 247.058 C 61.772 250.868, 63.660 251.976, 67.253 252.515 C 81.620 254.670, 101 241.789, 101 230.087 C 101 225.267, 102.869 225.464, 77.500 227.617 M 342.207 229.251 C 341.368 230.261, 342.189 233.632, 345.564 243.044 C 351.992 260.968, 352.007 261, 354.201 261 C 356.608 261, 356.509 260.469, 350.656 242.002 C 346.401 228.577, 344.787 226.142, 342.207 229.251 M 48 242.161 C 48 244.551, 56.620 258.333, 60.569 262.259 C 69.525 271.160, 81.791 268.750, 91.232 256.236 C 95.758 250.237, 101 242.372, 101 241.581 C 101 241.327, 98.747 243.502, 95.993 246.414 C 87.338 255.566, 73.842 260.753, 65.687 258.062 C 60.750 256.432, 57.458 253.627, 52.368 246.714 C 49.966 243.450, 48 241.401, 48 242.161 M 229.500 247.426 C 225.650 248.795, 221.816 249.934, 220.979 249.958 C 218.778 250.019, 188.305 264.714, 176.008 271.645 C 170.039 275.009, 165.373 278.300, 165.185 279.279 C 165.003 280.225, 165.986 283.475, 167.371 286.500 C 169.380 290.887, 170.364 292, 172.234 292 C 176.156 292, 194.065 285.994, 194.644 284.484 C 194.943 283.707, 194.237 281.737, 193.075 280.106 C 191.095 277.324, 191.634 275.038, 193.935 276.460 C 195.596 277.486, 201.041 288.361, 200.258 289.088 C 198.795 290.446, 174.052 298, 171.066 298 C 168.982 298, 167.559 297.256, 166.475 295.602 C 164.377 292.401, 159 278.343, 159 276.061 C 159 274.344, 168.558 268.211, 180.847 262.042 C 183.238 260.842, 185.003 259.670, 184.770 259.436 C 184.537 259.203, 177.371 257.473, 168.846 255.592 C 160.321 253.711, 151.624 251.452, 149.520 250.573 C 147.415 249.693, 145.521 249.146, 145.311 249.356 C 145.100 249.566, 145.654 253.285, 146.542 257.619 C 148.101 265.237, 155.110 283.332, 161.088 295.174 C 165.764 304.438, 168.010 304.811, 185.623 299.251 L 197.500 295.501 230.623 295.861 C 252.454 296.099, 263.960 295.874, 264.376 295.201 C 264.723 294.640, 264.749 293.510, 264.435 292.691 C 263.955 291.439, 259.881 291.144, 239.004 290.850 C 210.316 290.446, 210.949 290.640, 205.236 280.519 C 200.920 272.874, 200.465 270.781, 202.693 268.835 C 203.687 267.968, 211.700 263.562, 220.500 259.045 C 236.213 250.979, 236.608 250.840, 242.500 251.282 C 245.800 251.530, 255.149 253.624, 263.276 255.935 C 279.657 260.593, 284.466 260.914, 276.500 256.817 C 269.855 253.400, 246.862 245.988, 241.089 245.402 C 237.808 245.070, 234.506 245.646, 229.500 247.426 M 360.392 250.052 C 361.320 255.855, 364.497 262.870, 366.555 263.659 C 368.166 264.278, 380.573 260.543, 382.423 258.882 C 382.983 258.380, 382.916 257.111, 382.252 255.653 C 381.139 253.211, 369.644 247.679, 362.866 246.323 L 359.695 245.689 360.392 250.052 M 386.240 252 C 387.792 256.313, 388.905 258, 390.199 258 C 392.514 258, 392.466 256.954, 389.877 250.935 C 388.435 247.584, 387.164 246, 385.917 246 C 384.172 246, 384.187 246.295, 386.240 252 M 48 275.500 L 48 299 74 299 L 100 299 100.005 285.750 C 100.008 278.462, 100.294 268, 100.641 262.500 L 101.272 252.500 97.199 258.532 C 92.774 265.085, 86.965 270.281, 81.522 272.555 C 77.410 274.273, 68.751 274.452, 65.684 272.882 C 61.577 270.779, 55.854 264.503, 52.340 258.250 C 50.408 254.813, 48.642 252, 48.414 252 C 48.186 252, 48 262.575, 48 275.500 M 209.197 269.021 L 205.894 271.035 208.651 276.100 C 211.743 281.781, 216.186 286, 219.077 286 C 222.059 286, 221.457 284.882, 215.016 278.464 C 211.724 275.184, 209.024 272.122, 209.016 271.660 C 209.007 271.198, 210.012 269.976, 211.250 268.944 C 214.205 266.478, 213.313 266.512, 209.197 269.021 M 359.005 277.962 C 357.633 278.306, 356.383 279.251, 356.227 280.062 C 355.959 281.454, 359.880 292.798, 372.022 325.750 L 377.273 340 382.713 340 C 387.393 340, 388.563 340.409, 391.077 342.923 C 392.685 344.531, 394 346.556, 394 347.423 C 394 349.483, 395.612 349.455, 396.407 347.381 C 397.078 345.632, 390.887 339, 388.584 339 C 386.661 339, 384.400 335.967, 382.993 331.500 C 382.300 329.300, 378.926 320.525, 375.496 312 C 372.065 303.475, 368.011 292.361, 366.487 287.303 C 364.964 282.244, 363.218 277.932, 362.609 277.720 C 361.999 277.509, 360.377 277.617, 359.005 277.962 M 393.404 280.098 C 384.900 281.502, 376.461 285.795, 378.397 287.731 C 378.726 288.059, 382.569 287.512, 386.938 286.514 C 404.568 282.488, 422.696 288.171, 432.133 300.683 C 437.538 307.850, 446.716 326.589, 448.450 334 C 450.416 342.404, 450.396 349.766, 448.383 357.936 C 446.456 365.761, 440.232 379.261, 438.924 378.453 C 438.416 378.139, 438 378.483, 438 379.218 C 438 380.942, 440.835 385, 442.040 385 C 442.549 385, 444.093 382.776, 445.471 380.057 C 452.427 366.331, 455.269 350.068, 453.120 336.295 C 449.796 314.988, 438.592 295.080, 425.152 286.596 C 416.594 281.193, 403.276 278.467, 393.404 280.098 M 384.076 294.200 C 377.226 297.733, 376.456 298.697, 377.420 302.536 C 378.188 305.599, 382.714 308.081, 383.932 306.109 C 384.542 305.123, 384.860 305.192, 385.329 306.416 C 385.731 307.464, 387.182 308, 389.612 308 L 393.287 308 392.625 300.879 C 391.656 290.449, 391.534 290.354, 384.076 294.200 M 414 292.684 C 414 295.939, 417.263 305.956, 418.145 305.410 C 419.035 304.860, 424 295.593, 424 294.482 C 424 293.694, 417.449 291, 415.532 291 C 414.689 291, 414 291.758, 414 292.684 M 346 296.701 C 346 298.663, 355.226 309, 356.978 309 C 359.212 309, 357.728 306.568, 352 300.840 C 347.631 296.471, 346 295.346, 346 296.701 M 422.546 299.908 L 420.091 304.753 423.555 305.315 C 425.460 305.624, 428.322 306.805, 429.914 307.939 C 431.506 309.072, 433.575 310, 434.511 310 C 435.575 310, 436.009 310.535, 435.666 311.427 C 435.113 312.868, 437.604 315.729, 438.571 314.763 C 439.186 314.147, 435.331 306.278, 433.172 303.742 C 431.744 302.064, 431.580 302.064, 429.588 303.742 C 427.511 305.491, 427.510 305.488, 429.346 303.315 C 431.140 301.191, 431.140 301.060, 429.346 298.608 C 426.329 294.484, 425.184 294.703, 422.546 299.908 M 204.077 302.407 C 203.018 303.684, 203.263 304.002, 205.662 304.461 C 221.113 307.422, 225.876 309.873, 231.181 317.597 C 234.570 322.530, 237.652 331.802, 238.555 339.782 C 239.439 347.597, 241 346.875, 241 338.651 C 241 321.579, 231.884 306.063, 220.106 303.089 C 212.275 301.111, 205.395 300.819, 204.077 302.407 M 64 310.300 C 64 312.131, 66.085 314, 68.129 314 C 70.246 314, 73.230 311.182, 72.450 309.919 C 71.542 308.450, 64 308.790, 64 310.300 M 167 315.926 C 150.308 321.761, 135.669 327.886, 116.118 337.215 C 110.687 339.807, 110.854 339.858, 86.500 328.034 C 76.600 323.227, 68.050 319.205, 67.500 319.094 C 66.950 318.984, 66.369 319.516, 66.210 320.276 C 66.021 321.172, 72.004 324.758, 83.210 330.467 C 92.719 335.311, 103.068 340.809, 106.207 342.684 C 109.345 344.558, 116.995 347.682, 123.207 349.625 C 129.418 351.568, 144.969 356.529, 157.765 360.649 C 180.684 368.029, 187.530 369.449, 181.798 365.632 C 180.311 364.642, 167.014 359.639, 152.247 354.513 C 120.191 343.386, 117.349 342.248, 118.573 341.036 C 120.992 338.640, 149.688 326.489, 167.064 320.504 C 188.934 312.970, 190 312.503, 190 310.465 C 190 308.144, 187.689 308.693, 167 315.926 M 135 311.725 C 136.375 312.698, 139.705 315.520, 142.401 317.997 C 145.236 320.602, 146.826 321.597, 146.174 320.358 C 144.743 317.643, 139.689 313.368, 135.630 311.441 C 132.502 309.956, 132.502 309.956, 135 311.725 M 286 315.622 C 271.938 327.327, 261.743 337.620, 255.188 346.728 C 245.684 359.934, 240.051 365.648, 235.322 366.880 C 233.220 367.427, 221.600 368.691, 209.500 369.688 C 191.417 371.177, 187.500 371.767, 187.500 373 C 187.500 374.181, 188.884 374.498, 194 374.489 C 200.218 374.478, 305.304 369.878, 305.684 369.600 C 305.784 369.527, 304.014 364.074, 301.750 357.483 C 297.831 346.078, 297.605 344.770, 297.066 330.351 C 296.580 317.351, 296.230 314.905, 294.595 313.101 C 293.547 311.946, 292.422 311.010, 292.095 311.022 C 291.768 311.033, 289.025 313.103, 286 315.622 M 382 313.500 C 382 315.517, 382.496 316, 384.567 316 C 386.771 316, 387.035 315.681, 386.434 313.750 C 385.774 311.627, 385.840 311.591, 387.617 313.119 C 388.653 314.009, 391.474 314.987, 393.888 315.292 C 396.301 315.597, 399.001 316.584, 399.888 317.485 C 401.377 318.998, 401.233 319.104, 398 318.882 C 391.685 318.447, 389 318.929, 389 320.500 C 389 322.199, 393.506 322.609, 394.500 321 C 394.840 320.450, 396.461 320, 398.102 320 C 400.268 320, 402.432 321.260, 406.001 324.598 C 412.573 330.745, 415.340 336.640, 415.430 344.687 C 415.478 349.033, 415.889 351, 416.750 351 C 417.438 351, 417.995 351.113, 417.989 351.250 C 417.934 352.521, 414.835 361.412, 413.668 363.648 C 412.175 366.507, 406 372.979, 406 371.685 C 406 371.306, 404.418 371.844, 402.485 372.880 C 399.938 374.245, 396.677 374.803, 390.650 374.906 C 381.722 375.058, 378.283 373.598, 375.965 368.672 C 374.976 366.571, 374.996 366.574, 376.593 368.750 C 378.785 371.737, 380.824 371.594, 382.050 368.368 C 383.335 364.988, 382.666 363.013, 379.070 359.567 C 375.317 355.971, 373.687 356.950, 374.427 362.353 L 374.996 366.500 373.071 362.325 C 371.527 358.976, 370.741 358.255, 369.105 358.683 C 365.345 359.666, 364.793 361.345, 366.016 368.087 C 367.097 374.050, 369.741 382, 370.644 382 C 370.878 382, 372.292 381.261, 373.785 380.357 C 376.492 378.720, 376.491 378.722, 373.622 381.165 C 371.006 383.393, 370.868 383.816, 372.112 385.808 C 372.865 387.014, 374.210 388, 375.102 388 C 376.275 388, 376.596 388.665, 376.263 390.406 C 375.911 392.245, 376.795 393.774, 380.022 396.906 C 384.936 401.674, 386.534 401.992, 387.440 398.382 C 387.802 396.942, 388.313 395.980, 388.577 396.243 C 388.840 396.507, 388.658 397.798, 388.172 399.111 C 386.543 403.510, 389.640 406.074, 391.964 402.250 C 392.833 400.820, 392.917 400.989, 392.424 403.175 C 391.847 405.732, 392.035 405.879, 396.660 406.490 C 399.322 406.841, 402.738 407.361, 404.251 407.644 C 406.222 408.013, 407.183 407.688, 407.640 406.496 C 408.019 405.509, 408.538 405.252, 408.916 405.863 C 410.284 408.077, 412.458 404.912, 413.076 399.807 L 413.718 394.500 413.859 399.750 C 414.005 405.178, 414.645 405.796, 418.172 403.908 C 419.795 403.039, 420.095 402.169, 419.634 399.658 L 419.054 396.500 420.576 399.283 L 422.098 402.066 424.799 400.115 C 426.285 399.041, 430.087 395.681, 433.250 392.647 C 438.384 387.721, 438.899 386.866, 438.062 384.662 C 436.825 381.410, 435.144 380.461, 434.339 382.560 C 433.645 384.368, 425.628 388.278, 420.179 389.466 C 417.879 389.968, 417.034 390.621, 417.429 391.595 C 418.934 395.301, 418.972 396.233, 417.516 393.720 C 416.630 392.192, 415.524 391.176, 415.057 391.465 C 414.591 391.753, 413.976 391.380, 413.690 390.636 C 413.405 389.892, 411.220 388.972, 408.836 388.591 C 406.451 388.210, 403.508 387.250, 402.296 386.456 C 400.333 385.172, 399.969 385.205, 398.970 386.757 C 397.947 388.347, 397.902 388.332, 398.458 386.580 C 398.794 385.524, 398.557 384.344, 397.932 383.958 C 397.308 383.572, 399.951 382.298, 403.806 381.128 C 409.799 379.307, 411.388 378.310, 414.769 374.249 C 419.941 368.037, 421.566 364.723, 423.114 357.227 C 424.172 352.104, 424.817 350.894, 426.849 350.217 C 428.702 349.599, 429.597 348.246, 430.498 344.699 C 431.154 342.115, 431.513 340, 431.296 340 C 431.078 340, 429.531 340.708, 427.857 341.574 C 426.184 342.439, 424.692 343.002, 424.542 342.824 C 424.392 342.646, 423.531 340.238, 422.629 337.474 C 421.726 334.709, 419.191 329.372, 416.994 325.613 C 414.797 321.854, 413 318.330, 413 317.782 C 413 317.234, 412.394 317.018, 411.654 317.303 C 410.914 317.587, 407.259 316.285, 403.534 314.410 C 397.654 311.450, 395.785 311, 389.380 311 C 382.175 311, 382 311.059, 382 313.500 M 218 313.470 C 218 313.729, 219.315 316.541, 220.923 319.720 C 224.431 326.659, 226.413 336.737, 225.493 342.960 C 224.437 350.101, 221.274 358.103, 218.261 361.260 L 215.500 364.153 218.500 363.478 C 228.743 361.175, 234.405 349.258, 232.008 335.046 C 230.442 325.762, 226.006 316.572, 222.122 314.563 C 218.973 312.935, 218 312.677, 218 313.470 M 348.975 322.250 C 329.447 363.218, 356.053 418.132, 395.355 417.976 C 403.449 417.943, 408.941 416.600, 416.903 412.706 C 424.686 408.899, 436.630 397.678, 440.008 391 C 442.210 386.648, 441.958 386.812, 432.363 396 C 425.301 402.762, 420.503 406.441, 415.711 408.765 C 388.793 421.822, 358.636 405.144, 349.872 372.354 C 346.570 360.001, 346.788 344.239, 350.429 332 C 351.983 326.775, 353.869 321.291, 354.620 319.813 C 355.997 317.105, 355.584 314, 353.847 314 C 353.330 314, 351.138 317.712, 348.975 322.250 M 424.655 315.829 C 422.302 318.429, 422.601 321.090, 425.613 324.339 L 428.227 327.157 431.113 324.391 C 434.657 320.997, 434.756 319.302, 431.500 317.818 C 430.125 317.192, 429 316.076, 429 315.339 C 429 313.418, 426.592 313.689, 424.655 315.829 M 194.444 316.886 C 189.451 319.154, 183.711 325.683, 182.161 330.858 C 181.522 332.989, 181 337.647, 181 341.209 C 181 349.849, 183.903 355.482, 190.053 358.777 C 205.401 366.997, 221.855 350.537, 218.168 330.649 C 215.789 317.815, 205.518 311.856, 194.444 316.886 M 409.250 319.662 C 407.509 320.365, 407.684 322, 409.500 322 C 410.325 322, 411 321.325, 411 320.500 C 411 319.675, 410.887 319.036, 410.750 319.079 C 410.613 319.122, 409.938 319.385, 409.250 319.662 M 192.743 322.529 C 188.128 325.664, 185.993 329.670, 185.286 336.514 C 184.468 344.445, 185.598 348.494, 189.892 353.007 C 193.290 356.579, 194.195 357, 198.477 357 C 205.141 357, 209.615 354.022, 212.608 347.596 C 215.695 340.965, 215.871 331.942, 213.005 327.241 C 208.577 319.978, 199.577 317.885, 192.743 322.529 M 283.924 324.750 L 281.500 327.500 284.250 325.076 C 285.762 323.742, 287 322.505, 287 322.326 C 287 321.541, 286.190 322.180, 283.924 324.750 M 113.721 327.041 C 114.334 329.384, 116.343 329.142, 116.823 326.667 C 117.037 325.563, 116.478 325, 115.167 325 C 113.666 325, 113.316 325.494, 113.721 327.041 M 111 326.882 C 111 327.432, 111.450 328.160, 112 328.500 C 112.550 328.840, 113 328.668, 113 328.118 C 113 327.568, 112.550 326.840, 112 326.500 C 111.450 326.160, 111 326.332, 111 326.882 M 193.963 328.750 C 188.229 333.888, 187.833 343.999, 193.189 348.506 C 199.432 353.759, 207.428 349.987, 210.079 340.540 C 213.231 329.307, 202.281 321.296, 193.963 328.750 M 433.750 329.695 C 429.858 332.368, 428.974 334, 431.419 334 C 433.987 334, 438.987 330.535, 438.994 328.750 C 439.002 326.466, 438.257 326.600, 433.750 329.695 M 276.437 331.250 L 273.500 334.500 276.750 331.563 C 279.779 328.825, 280.460 328, 279.687 328 C 279.515 328, 278.052 329.462, 276.437 331.250 M 437.019 334.747 L 433.538 336.500 433.862 345.499 C 434.196 354.751, 434.743 355.957, 438.619 355.985 C 440.295 355.997, 440.868 355.216, 441.358 352.250 C 442.108 347.712, 441.996 339.512, 441.132 335.747 L 440.500 332.993 437.019 334.747 M 84.609 342.096 C 80.322 352.389, 80.021 369.032, 83.938 379.247 C 87.948 389.705, 99.705 400, 107.638 400 C 114.600 400, 125.241 394.156, 128.140 388.739 C 129.002 387.127, 128.096 387.494, 124.268 390.303 C 121.343 392.450, 116.746 394.619, 113.184 395.531 C 107.332 397.031, 106.938 397.009, 102.950 394.974 C 92.643 389.716, 85.033 378.338, 84.240 367 L 83.855 361.500 95.966 355.649 C 105.924 350.838, 107.871 349.549, 106.916 348.399 C 105.113 346.226, 103.601 346.636, 93.364 352.072 C 88.110 354.862, 83.602 356.935, 83.345 356.678 C 83.088 356.422, 83.769 352.452, 84.857 347.857 C 86.984 338.875, 86.887 336.625, 84.609 342.096 M 419.195 341.500 C 419.215 343.150, 419.439 343.704, 419.693 342.731 C 419.947 341.758, 419.930 340.408, 419.656 339.731 C 419.382 339.054, 419.175 339.850, 419.195 341.500 M 400.032 341.059 C 400.014 341.916, 400.661 343.491, 401.468 344.559 C 402.642 346.111, 402.943 346.187, 402.968 344.941 C 402.986 344.084, 402.339 342.509, 401.532 341.441 C 400.358 339.889, 400.057 339.813, 400.032 341.059 M 353.571 342.571 C 351.587 344.556, 351.573 346.401, 353.530 348.025 C 355.407 349.583, 360 347.857, 360 345.593 C 360 344.013, 357.376 341, 356 341 C 355.529 341, 354.436 341.707, 353.571 342.571 M 381.250 344.641 C 379.852 345.229, 379.538 349.596, 380.836 350.398 C 381.295 350.683, 382.983 350.564, 384.586 350.136 C 386.791 349.546, 387.500 348.765, 387.500 346.928 C 387.500 345.056, 386.927 344.456, 385 344.307 C 383.625 344.201, 381.938 344.351, 381.250 344.641 M 368.583 352.643 C 368.237 353.547, 368.169 354.502, 368.433 354.767 C 369.363 355.697, 372 354.044, 372 352.531 C 372 350.484, 369.379 350.570, 368.583 352.643 M 426 352.047 C 426 353.099, 430.358 356.161, 435.710 358.869 C 440.685 361.387, 441.689 361.535, 440.003 359.503 C 438.402 357.575, 426 350.971, 426 352.047 M 351.730 354.130 C 353.500 355.900, 363.164 358.875, 364.919 358.190 C 365.912 357.803, 364.947 357.305, 362.326 356.852 C 360.031 356.455, 356.791 355.426, 355.126 354.565 C 351.568 352.725, 350.142 352.542, 351.730 354.130 M 417.913 361.250 C 417.207 363.038, 416.434 364.950, 416.195 365.500 C 415.956 366.050, 416.433 365.825, 417.256 365 C 418.656 363.596, 420.543 358, 419.617 358 C 419.385 358, 418.618 359.462, 417.913 361.250 M 95.583 359.866 C 95.152 360.563, 95.070 361.403, 95.400 361.733 C 96.295 362.628, 97.271 361.312, 96.787 359.862 C 96.449 358.846, 96.213 358.846, 95.583 359.866 M 431.571 361.884 C 431.243 362.416, 431.494 363.989, 432.128 365.381 L 433.281 367.912 435.255 365.404 C 436.340 364.024, 437.064 362.749, 436.864 362.572 C 435.698 361.537, 432.077 361.067, 431.571 361.884 M 91.402 365.356 C 92.421 373.113, 98.168 377.990, 106.300 377.996 C 111.825 378.001, 115.932 376.174, 118.912 372.385 C 121.969 368.499, 121.460 367.435, 117.955 370.385 C 113.805 373.877, 108.409 375.228, 103.750 373.941 C 99.182 372.680, 94.192 368.582, 92.316 364.550 L 90.896 361.500 91.402 365.356 M 133.065 368.421 C 132.097 369.588, 132.255 369.746, 133.943 369.305 C 135.074 369.009, 136 368.369, 136 367.883 C 136 366.535, 134.386 366.830, 133.065 368.421 M 417.250 372.379 C 413.335 377.579, 413.233 378.591, 416.536 379.420 C 419.969 380.281, 429.211 376.992, 428.508 375.159 C 427.473 372.463, 423.468 368.110, 422 368.086 C 421.175 368.073, 419.038 370.004, 417.250 372.379 M 108.050 370.427 C 106.703 371.174, 104.942 371.531, 104.136 371.222 C 103.192 370.860, 102.929 371.075, 103.395 371.830 C 104.813 374.124, 112 372.924, 112 370.393 C 112 368.677, 111.199 368.684, 108.050 370.427 M 167.468 370.372 C 167.262 370.993, 166.346 374.200, 165.433 377.500 C 161.135 393.042, 148.119 409.425, 135.255 415.485 C 131.552 417.229, 129.517 418.692, 130.255 419.080 C 130.940 419.439, 137.572 420.025, 144.994 420.383 C 152.416 420.740, 170.641 422.130, 185.494 423.472 C 200.347 424.814, 223.750 426.612, 237.500 427.468 C 251.250 428.324, 276.675 429.929, 294 431.034 C 322.774 432.870, 378.137 435.178, 378.760 434.568 C 378.903 434.428, 375.753 432.696, 371.760 430.718 C 356.877 423.347, 342.017 406.938, 335.870 391.086 L 333.632 385.315 302.153 384.658 C 268.141 383.947, 230 383.785, 230 384.351 C 230 387.681, 233.490 392.072, 241.346 398.627 C 246.381 402.828, 250.500 406.683, 250.500 407.195 C 250.500 407.707, 249.296 408.856, 247.825 409.749 C 245.274 411.297, 245.013 411.259, 242.184 408.936 C 231.840 400.440, 222.052 391.980, 218.825 388.750 L 215.080 385 204.105 385 C 198.069 385, 191.992 384.567, 190.602 384.039 C 189.042 383.446, 187.087 381.132, 185.500 378 C 182.750 372.573, 181.357 371.701, 173.025 370.186 C 169.318 369.512, 167.737 369.565, 167.468 370.372 M 372 371 C 372.589 372.100, 373.295 373, 373.570 373 C 373.845 373, 373.589 372.100, 373 371 C 372.411 369.900, 371.705 369, 371.430 369 C 371.155 369, 371.411 369.900, 372 371 M 131.686 372.017 C 127.844 373.170, 126 374.865, 126 377.245 C 126 378.776, 125.694 378.991, 124.696 378.163 C 123.724 377.356, 122.770 377.650, 120.946 379.320 C 119.601 380.552, 117.767 381.411, 116.871 381.230 C 115.976 381.048, 114.567 381.576, 113.740 382.402 C 112.914 383.229, 112.001 383.668, 111.712 383.379 C 111.423 383.089, 109.801 383.569, 108.107 384.444 C 104.425 386.349, 103.019 390.448, 105.274 392.703 C 107.184 394.613, 108.800 393.674, 110.560 389.630 C 112.116 386.054, 112.501 387.551, 111.025 391.435 C 110.151 393.733, 110.292 394, 112.376 394 C 114.864 394, 123.321 389.873, 126.312 387.198 C 127.369 386.253, 127.913 384.774, 127.617 383.645 C 127.238 382.194, 127.397 381.997, 128.256 382.856 C 130.204 384.804, 131.010 384.177, 133.536 378.750 C 137.158 370.971, 137.006 370.420, 131.686 372.017 M 408.980 372.524 C 407.048 374.853, 408.426 375.291, 410.494 373.006 C 411.493 371.903, 411.845 371, 411.277 371 C 410.710 371, 409.676 371.686, 408.980 372.524 M 394 378 C 394 378.550, 394.450 379, 395 379 C 395.550 379, 396 378.550, 396 378 C 396 377.450, 395.550 377, 395 377 C 394.450 377, 394 377.450, 394 378 M 384 379.059 C 384 379.641, 384.450 379.840, 385 379.500 C 385.550 379.160, 386 378.684, 386 378.441 C 386 378.198, 385.550 378, 385 378 C 384.450 378, 384 378.477, 384 379.059 M 388 379 C 388 379.550, 388.423 380, 388.941 380 C 389.459 380, 390.160 379.550, 390.500 379 C 390.840 378.450, 390.416 378, 389.559 378 C 388.702 378, 388 378.450, 388 379 M 412.079 380.583 C 412.127 381.748, 412.364 381.985, 412.683 381.188 C 412.972 380.466, 412.936 379.603, 412.604 379.271 C 412.272 378.939, 412.036 379.529, 412.079 380.583 M 119.079 384.583 C 119.127 385.748, 119.364 385.985, 119.683 385.188 C 119.972 384.466, 119.936 383.603, 119.604 383.271 C 119.272 382.939, 119.036 383.529, 119.079 384.583 M 379.924 385.743 C 378.165 387.734, 378.070 388.008, 379.579 386.743 C 380.722 385.784, 382.185 385, 382.829 385 C 383.473 385, 384 384.550, 384 384 C 384 382.244, 382.419 382.920, 379.924 385.743 M 388.813 384.683 C 389.534 384.972, 390.397 384.936, 390.729 384.604 C 391.061 384.272, 390.471 384.036, 389.417 384.079 C 388.252 384.127, 388.015 384.364, 388.813 384.683 M 359.556 388.500 C 361.693 392.252, 365.183 396.151, 365.827 395.506 C 366.095 395.239, 365.230 394.002, 363.907 392.758 C 362.583 391.514, 360.678 389.372, 359.674 387.998 C 357.862 385.520, 357.861 385.524, 359.556 388.500 M 373.500 402 C 373.160 402.550, 373.332 403, 373.882 403 C 374.432 403, 375.160 402.550, 375.500 402 C 375.840 401.450, 375.668 401, 375.118 401 C 374.568 401, 373.840 401.450, 373.500 402" stroke="none" fill="black" fill-rule="evenodd"/>
</svg>