<svg xmlns="http://www.w3.org/2000/svg" width="512" height="512" viewBox="0 0 512 512" version="1.1">
	<path d="M 316.500 23.164 C 313.003 25.093, 308.876 29.384, 306.988 33.054 C 304.714 37.473, 302.649 48.466, 303.475 51.755 C 304.121 54.331, 301.451 57.393, 288.250 69.213 L 283 73.914 283 80.982 L 283 88.050 279.891 88.672 C 276.810 89.288, 276.787 89.339, 277.422 94.120 C 278.159 99.678, 278.349 99.566, 266.879 100.316 C 261.697 100.655, 258.039 101.766, 250.043 105.432 C 238.043 110.932, 232.061 111.942, 227.075 109.309 C 225.191 108.314, 223.179 106.600, 222.605 105.500 C 222.030 104.400, 220.493 101.760, 219.188 99.633 C 216.820 95.772, 216.811 95.767, 211.752 96.439 C 206.137 97.183, 205.041 96.425, 205.015 91.773 C 205.005 90.008, 204.152 88.490, 202.595 87.470 C 201.273 86.604, 199.911 84.782, 199.570 83.422 C 199.229 82.062, 197.386 79.219, 195.475 77.104 C 191.381 72.572, 191.225 71.554, 194.311 69.532 C 195.582 68.699, 197.719 66.101, 199.061 63.759 C 201.152 60.107, 201.499 58.217, 201.493 50.500 C 201.485 40.529, 199.504 35.115, 194.393 31.095 C 188.362 26.350, 179.927 30.412, 176.324 39.797 C 173.494 47.164, 173.872 59.024, 177.161 66.115 C 179.690 71.567, 180.702 72.617, 187.923 77.287 C 189.806 78.504, 191.525 80.046, 191.744 80.713 C 191.963 81.381, 189.973 82.992, 187.321 84.295 C 184.669 85.597, 179.350 88.358, 175.500 90.431 C 169.166 93.841, 168.002 94.142, 163.271 93.593 C 158.268 93.014, 158.013 93.099, 157.393 95.571 C 157.032 97.008, 157.297 99.186, 157.990 100.482 C 159.508 103.319, 158.634 105, 155.641 105 C 152.453 105, 150.856 106.863, 152.082 109.153 C 152.626 110.169, 153.703 111, 154.476 111 C 157.788 111, 156.572 112.981, 151.229 116.289 C 144.412 120.510, 136.737 127.949, 133.448 133.525 C 125.228 147.459, 127.019 167.131, 137.576 178.873 C 143.601 185.574, 148.847 188, 157.316 188 C 160.992 188, 164 188.251, 164 188.557 C 164 188.864, 163.514 191.045, 162.920 193.405 L 161.839 197.696 147.670 198.347 C 130.798 199.123, 120.943 200.461, 116.975 202.513 C 103.930 209.259, 67 237.776, 67 241.104 C 67 241.597, 68.912 242.001, 71.250 242.001 C 73.588 242.002, 81.442 242.694, 88.704 243.539 L 101.908 245.075 107.704 242.122 C 110.892 240.497, 118.675 235.737, 125 231.543 C 137.735 223.099, 135.940 223.445, 150.318 226.664 C 154.068 227.504, 157.369 228.798, 157.653 229.539 C 158.139 230.806, 150.052 255.886, 147.595 260.733 C 146.534 262.823, 145.668 262.993, 133.981 263.411 C 115.730 264.063, 102.149 268.429, 86.960 278.527 C 78.564 284.108, 66.292 296.037, 59.210 305.500 C 51.878 315.296, 43.505 332.577, 40.312 344.500 C 37.855 353.675, 37.629 356.110, 37.579 374 C 37.531 391.017, 37.809 394.626, 39.765 402.340 C 44.654 421.629, 52.993 437.497, 64.941 450.245 C 73.826 459.726, 81.754 465.336, 92.298 469.606 C 96.586 471.343, 100.106 473.138, 100.119 473.594 C 100.132 474.051, 91.448 477.366, 80.821 480.962 C 60.838 487.724, 59.013 488.870, 62.565 492.423 C 64.568 494.426, 62.057 494.725, 109 486.888 C 147.382 480.481, 176.761 474.801, 196.205 470.030 C 215.478 465.301, 231 460.754, 231 459.838 C 231 458.732, 203.944 458.811, 192.500 459.950 C 187.550 460.442, 180.350 461.135, 176.500 461.489 L 169.500 462.133 172.500 459.914 C 179.120 455.017, 192.044 440.797, 197.756 432.126 C 208.340 416.061, 215.859 395.942, 218.105 377.679 C 219.676 364.911, 218.599 351.304, 214.529 332.500 C 213.327 326.947, 220.858 344.730, 224.024 354.922 C 225.902 360.965, 227.846 365.382, 228.870 365.930 C 231.533 367.356, 261.969 371.888, 277.500 373.172 L 291.500 374.330 310 370.714 C 335.983 365.636, 358.729 361.798, 360.583 362.178 C 361.479 362.361, 363.330 365.520, 364.882 369.516 C 369.870 382.355, 378.959 393.372, 390.750 400.870 C 395.210 403.706, 397.339 406, 395.512 406 C 393.789 406, 356.527 416.574, 349.311 419.111 C 335.323 424.028, 334.515 425.948, 346.717 425.274 C 354.651 424.835, 408.367 415.986, 431 411.388 C 445.817 408.378, 474.534 401.378, 477.806 399.978 C 479.075 399.435, 479.875 398.606, 479.584 398.135 C 478.511 396.400, 469.350 396.036, 452.791 397.070 C 443.446 397.654, 435.611 397.944, 435.381 397.715 C 435.152 397.485, 436.738 396.068, 438.906 394.565 C 444.598 390.621, 453.700 378.760, 458.142 369.500 C 464.797 355.626, 466.313 348.041, 466.413 328.102 C 466.496 311.454, 466.590 310.663, 468.592 309.769 C 470.190 309.056, 470.973 307.268, 471.907 302.201 C 473.434 293.916, 472.553 293.001, 463.059 292.998 L 456.500 292.997 460 291.248 C 465.083 288.709, 464.937 286.298, 459.186 277.776 C 451.013 265.664, 443.377 259.928, 430.126 255.946 C 417.384 252.117, 401.455 254.981, 392.998 262.621 C 389.284 265.976, 386.642 266.847, 385.548 265.077 C 385.035 264.247, 399.184 249, 400.468 249 C 400.760 249, 401 249.675, 401 250.500 C 401 252.896, 402.936 252.235, 404.228 249.398 L 405.414 246.797 419.036 247.502 C 432.262 248.187, 432.801 248.135, 437.579 245.717 C 446.257 241.325, 468.347 233.717, 473.183 233.454 C 475.759 233.315, 478.347 232.904, 478.933 232.541 C 479.634 232.108, 480 224.694, 480 210.941 C 480 191.333, 479.873 189.873, 478 188 C 476.889 186.889, 474.667 186, 473 186 C 470.743 186, 470 185.540, 470 184.142 C 470 182.763, 471.095 182.054, 474.250 181.392 C 477.850 180.636, 478.548 180.088, 478.811 177.807 C 479.087 175.417, 478.711 175.036, 475.476 174.429 C 473.470 174.053, 467.124 173.955, 461.373 174.210 C 455.623 174.466, 450.684 174.298, 450.400 173.838 C 450.115 173.377, 450.772 173, 451.859 173 C 454.845 173, 457 171.941, 457 170.473 C 457 166.231, 423.586 164.600, 395.500 167.470 C 376.488 169.414, 371.713 170.572, 366.581 174.490 C 364.199 176.308, 361.407 178.238, 360.375 178.778 C 358.630 179.692, 345.193 183, 343.223 183 C 342.738 183, 336.752 179.386, 329.921 174.969 C 320.862 169.112, 316.903 167.084, 315.294 167.477 C 313.759 167.852, 310.920 166.614, 305.970 163.412 C 291.500 154.051, 279.056 149.840, 259.915 147.827 C 253.362 147.138, 248 146.172, 248 145.681 C 248 145.190, 249.125 143.452, 250.500 141.818 C 253.519 138.230, 253.700 134.160, 250.996 130.722 L 248.992 128.174 252.746 125.256 C 257.956 121.206, 268.278 115, 269.805 115 C 270.501 115, 272.067 115.634, 273.285 116.409 C 274.840 117.399, 279.669 117.920, 289.500 118.159 C 301.429 118.450, 303.500 118.278, 303.500 117 C 303.500 115.802, 300.987 115.293, 291 114.471 C 278.510 113.442, 278.505 113.441, 284.750 112.671 C 288.188 112.247, 293.648 112.200, 296.885 112.567 C 301.804 113.123, 302.925 112.957, 303.709 111.555 C 304.759 109.679, 317.307 108.076, 331.316 108.027 C 342.192 107.989, 343 107.406, 343 99.587 C 343 91.406, 342.269 90.837, 334 92.585 C 330.425 93.340, 323.280 93.968, 318.121 93.979 C 308.747 94, 308.740 93.998, 304.761 90.403 C 300.156 86.243, 295.347 84, 291.032 84 C 288.183 84, 288.004 83.773, 288.066 80.250 C 288.127 76.754, 288.774 75.973, 297.625 68.707 L 307.118 60.915 309.870 63.861 C 315.454 69.839, 325.140 70.119, 331.821 64.497 C 339.434 58.091, 342.028 41.359, 336.941 31.473 C 333.631 25.042, 329.159 21.990, 323.102 22.030 C 320.571 22.047, 317.600 22.557, 316.500 23.164 M 286.624 93.539 C 286.281 94.432, 286.039 95.914, 286.086 96.832 C 286.133 97.749, 286.568 97.173, 287.053 95.550 C 287.996 92.394, 287.662 90.832, 286.624 93.539 M 176 106.867 L 169.500 108.500 176.906 108.797 C 185.239 109.131, 187 108.736, 187 106.531 C 187 104.634, 184.595 104.708, 176 106.867 M 252.500 108.338 C 248.650 110.134, 242.800 112.663, 239.500 113.958 C 232.347 116.764, 230.683 118, 234.057 118 C 236.517 118, 254.734 109.507, 258.500 106.605 C 261.395 104.374, 260.348 104.676, 252.500 108.338 M 153.591 122.481 C 151.441 123.247, 148.741 124.898, 147.591 126.150 C 145.679 128.231, 145.671 128.291, 147.500 126.854 C 150.413 124.566, 155.695 123, 160.501 123 C 168.579 123, 174.839 129.887, 177.130 141.293 C 179.321 152.202, 173.935 167.134, 165.485 173.579 C 162.552 175.817, 160.457 176.503, 155.630 176.807 C 150.014 177.161, 149.086 176.913, 144.557 173.847 C 137.617 169.148, 135 163.817, 135 154.378 C 135 145.732, 136.935 139.365, 141.650 132.500 C 145.066 127.526, 145.068 127.518, 141.966 131 C 140.250 132.925, 137.665 136.750, 136.221 139.500 C 133.998 143.734, 133.589 145.812, 133.548 153.068 C 133.505 160.677, 133.837 162.295, 136.513 167.529 C 140.828 175.972, 146.123 179.515, 154.336 179.455 C 165.059 179.376, 171.445 174.545, 177.410 162 C 180.224 156.080, 180.500 154.607, 180.500 145.500 C 180.500 136.833, 180.167 134.834, 178 130.501 C 174.603 123.709, 170.315 120.987, 163.102 121.044 C 160.021 121.068, 155.741 121.715, 153.591 122.481 M 227.250 128.584 C 225.463 129.992, 224 131.527, 224 131.995 C 224 132.462, 225.564 133.361, 227.476 133.992 C 230.631 135.033, 231.276 134.892, 234.476 132.451 C 238.342 129.502, 238.575 128.975, 236.800 127.200 C 234.846 125.246, 230.727 125.843, 227.250 128.584 M 150.366 129.919 C 137.865 137.541, 135.286 158.001, 145.484 168.644 C 148.709 172.010, 150.385 173, 152.861 173 C 163.535 173, 172.095 162.040, 172.273 148.144 C 172.382 139.628, 170.746 134.862, 166.404 131.050 C 163.580 128.570, 162.049 128.001, 158.215 128.004 C 155.339 128.006, 152.278 128.753, 150.366 129.919 M 238.571 133.571 C 237.707 134.436, 237 135.529, 237 136 C 237 137.842, 240.287 140, 243.093 140 C 246.734 140, 249.127 136.063, 247.025 133.530 C 245.375 131.542, 240.577 131.566, 238.571 133.571 M 230.099 154.300 C 217.587 180.459, 212.046 192.656, 212.024 194.089 C 211.991 196.278, 216.506 198.304, 217.830 196.694 C 218.369 196.037, 221.572 189.038, 224.947 181.139 C 228.322 173.240, 232.466 164.039, 234.156 160.692 C 238.758 151.574, 240.049 147.449, 238.715 146.115 C 236.195 143.595, 234.407 145.294, 230.099 154.300 M 242.919 152.447 C 241.622 154.892, 240.890 157.223, 241.292 157.626 C 241.695 158.028, 244.382 157.425, 247.262 156.285 C 250.143 155.146, 253.400 153.910, 254.500 153.539 C 256.177 152.975, 255.693 152.475, 251.500 150.442 C 248.750 149.109, 246.225 148.014, 245.889 148.009 C 245.553 148.004, 244.216 150.001, 242.919 152.447 M 265 158.958 C 254.226 160.886, 245.589 167.518, 240.850 177.500 C 235.836 188.062, 237.166 197.020, 245.278 207.327 C 249.559 212.767, 266.317 226.620, 272.257 229.630 C 277.947 232.514, 279.407 232.417, 292.476 228.292 C 301.615 225.407, 321 217.127, 321 216.109 C 321 214.434, 300.280 207.690, 297.627 208.502 C 297.007 208.692, 291.648 209.137, 285.718 209.492 L 274.937 210.138 268.964 203.880 C 261.790 196.364, 258 189.252, 258 183.304 L 258 179 270.365 179 C 284.970 179, 286.432 179.709, 290.010 188.525 C 292.663 195.062, 293.175 195.375, 316.700 204.867 C 332.022 211.049, 335 211.876, 335 209.944 C 335 207.857, 328.776 196.392, 324.740 191.042 C 308.215 169.142, 283.192 155.703, 265 158.958 M 379 177.994 C 375.975 178.379, 370.800 179.843, 367.500 181.248 C 364.200 182.653, 358.913 184.124, 355.750 184.517 C 345.101 185.839, 348.863 187.126, 367.500 188.538 C 377.764 189.316, 391.665 187.613, 394.265 185.260 C 396.051 183.644, 399 178.842, 399 177.550 C 399 176.821, 385.937 177.111, 379 177.994 M 403.096 183.392 C 401.915 186.082, 401.155 188.488, 401.405 188.738 C 402.143 189.476, 406.158 180.962, 405.679 179.675 C 405.438 179.029, 404.276 180.701, 403.096 183.392 M 454.500 180 C 453.086 180.607, 454.332 180.880, 458.750 180.930 C 462.297 180.970, 465 180.567, 465 180 C 465 178.794, 457.307 178.794, 454.500 180 M 273.923 183.923 C 272.315 185.531, 271 187.714, 271 188.775 C 271 191.058, 274.938 197.161, 276.807 197.775 C 277.526 198.011, 276.963 197.054, 275.557 195.648 C 271.922 192.013, 272.128 187.617, 276.106 183.901 C 277.814 182.306, 278.679 181, 278.029 181 C 277.378 181, 275.531 182.315, 273.923 183.923 M 458 184.250 C 453.570 185.269, 453.545 185.298, 456.382 186.091 C 460.086 187.127, 465 186.149, 465 184.375 C 465 182.815, 464.289 182.802, 458 184.250 M 278.750 186.080 C 275.693 187.860, 277.158 196, 280.535 196 C 282.355 196, 286 192.457, 286 190.689 C 286 189.268, 282.371 184.981, 281.211 185.030 C 280.820 185.047, 279.712 185.519, 278.750 186.080 M 470.250 190.708 C 469.314 191.052, 469 195.661, 469 209.083 L 469 227 471.552 227 L 474.103 227 473.428 209.250 C 473.057 199.488, 472.471 191.219, 472.127 190.875 C 471.782 190.531, 470.938 190.456, 470.250 190.708 M 435.301 192.916 C 426.057 195.561, 420 198.039, 420 199.177 C 420 199.734, 420.966 203.369, 422.146 207.255 L 424.292 214.319 426.396 211.410 C 427.553 209.809, 431.762 204.825, 435.750 200.333 C 439.738 195.842, 443 191.904, 443 191.583 C 443 190.782, 442.390 190.888, 435.301 192.916 M 205.655 200.829 C 203.407 203.313, 203.575 205.263, 206.250 207.709 C 208.328 209.609, 214.208 213, 215.425 213 C 216.692 213, 219.044 206.713, 218.462 204.881 C 217.699 202.477, 212.355 199.009, 209.405 199.004 C 208.253 199.002, 206.565 199.823, 205.655 200.829 M 402 204.868 C 384.613 212.812, 348.739 231.996, 347.489 234.019 C 347.249 234.407, 349.317 238.274, 352.086 242.612 C 354.854 246.951, 358.556 252.969, 360.312 255.987 C 362.068 259.004, 364.346 261.635, 365.373 261.833 C 366.640 262.077, 369.557 259.827, 374.428 254.847 C 381.517 247.600, 390.652 235.319, 389.679 234.346 C 389.404 234.070, 385.876 234.755, 381.839 235.867 C 372.699 238.385, 358.874 241.208, 358.333 240.666 C 358.110 240.444, 360.532 239.230, 363.714 237.969 C 366.896 236.707, 375.879 233.049, 383.675 229.838 C 398.525 223.722, 401 223.090, 401 225.412 C 401 227.047, 386.497 247.588, 381.169 253.500 C 374.734 260.640, 367.786 266, 364.965 266 C 361.593 266, 360.516 264.717, 353.542 252.406 C 346.294 239.612, 343.823 236.470, 341.660 237.300 C 338.966 238.334, 339.710 240.694, 344.838 247.385 C 347.500 250.857, 352.028 257.807, 354.902 262.829 C 357.777 267.852, 360.575 272.237, 361.122 272.575 C 362.492 273.422, 368.551 269.289, 381.500 258.677 C 396.548 246.344, 404.843 238.126, 413.044 227.424 C 418.106 220.820, 419.986 217.552, 419.948 215.424 C 419.876 211.294, 415.581 200.543, 413.902 200.285 C 413.131 200.167, 407.775 202.229, 402 204.868 M 138 205.056 C 122.666 206.187, 120.887 206.579, 116.368 209.823 C 114.241 211.350, 107.107 215.952, 100.515 220.049 C 86.651 228.668, 86.444 228.420, 107 227.805 C 122.154 227.351, 123.756 226.822, 131.915 219.576 C 136.715 215.312, 137.090 215.172, 145.589 214.464 C 150.396 214.064, 159.317 214.098, 165.414 214.541 C 183.765 215.873, 183.454 215.902, 183.810 212.813 C 184.392 207.774, 177.814 205.533, 160 204.699 C 154.225 204.428, 144.325 204.589, 138 205.056 M 206.165 213.301 C 204.196 215.673, 187.517 263.851, 188.370 264.703 C 188.522 264.855, 189.969 265.244, 191.585 265.567 C 194.482 266.146, 194.563 266.040, 197.166 258.327 C 198.619 254.022, 202.297 243.228, 205.340 234.339 C 212.078 214.654, 211.988 215.120, 209.394 213.369 C 207.628 212.177, 207.108 212.166, 206.165 213.301 M 319.708 221.966 C 313.223 225.159, 301.413 230.130, 293.463 233.013 C 275.071 239.684, 273.157 239.609, 259.338 231.686 C 253.946 228.595, 249.185 226.415, 248.759 226.841 C 248.332 227.268, 247.007 230.290, 245.814 233.558 C 241.817 244.506, 242.277 247.136, 255.872 291 C 275.154 353.215, 275.838 355.313, 277.997 358.808 C 280.455 362.786, 286.906 365.948, 292.628 365.978 C 296.383 365.998, 327.687 360.029, 350.750 354.895 C 359.890 352.860, 360 352.800, 360 349.852 C 360 348.211, 359.514 345.960, 358.919 344.849 C 358.324 343.738, 358.122 342.545, 358.468 342.198 C 358.815 341.852, 364.139 342.763, 370.299 344.224 C 376.460 345.685, 384.182 347.452, 387.460 348.150 C 394.105 349.566, 397 351.785, 397 355.462 C 397 359.704, 400.861 368.478, 404.702 372.965 C 408.467 377.363, 416.680 381.973, 420.783 381.990 C 423.601 382.002, 431.667 377.992, 435.771 374.539 C 438.831 371.964, 445.550 361.216, 444.657 360.324 C 444.396 360.063, 443.897 360.748, 443.549 361.847 C 442.631 364.737, 435.901 370.504, 429.786 373.641 C 419.355 378.991, 409.421 376.431, 404.139 367.033 C 401.317 362.012, 397.909 352.167, 398.811 351.641 C 399.432 351.279, 415.967 354.932, 416.878 355.632 C 417.086 355.792, 416.363 357.853, 415.272 360.212 C 412.334 366.562, 411.757 369.693, 413.409 370.327 C 414.366 370.694, 414.995 369.839, 415.414 367.605 C 415.750 365.813, 416.726 363.482, 417.583 362.424 C 419.046 360.617, 419.110 360.726, 418.636 364.232 C 418.359 366.284, 418.497 368.189, 418.944 368.465 C 419.900 369.056, 421 364.181, 421 359.350 C 421 355.435, 420.850 355.353, 406.401 351.345 C 397.734 348.940, 397.174 348.622, 396.604 345.772 C 395.193 338.715, 395.374 338.462, 404.591 334.604 C 416.363 329.676, 423.032 328.101, 435.318 327.350 L 445.816 326.707 446.236 323.848 C 446.466 322.275, 446.433 320.766, 446.161 320.494 C 445.889 320.222, 442.071 320, 437.675 320 C 423.588 320, 375.575 315.927, 374.771 314.664 C 374.364 314.024, 374.024 312.576, 374.015 311.446 C 374 309.383, 368.740 293.175, 365.513 285.250 C 364.280 282.221, 363.202 281, 361.760 281 C 358.365 281, 332.015 295.124, 326.754 299.763 C 325.429 300.932, 325.277 301.629, 326.126 302.652 C 327.896 304.785, 329.293 304.370, 342.265 297.862 C 356.603 290.670, 359.314 289.742, 361.318 291.340 C 363.615 293.172, 367.398 305.954, 367.434 312.004 C 367.474 318.671, 365.349 322.521, 356.280 332.210 C 352.826 335.901, 350.010 339.276, 350.022 339.710 C 350.034 340.145, 350.924 341.625, 352 343 C 354.360 346.017, 354.505 347.592, 352.495 348.363 C 351.228 348.850, 315.877 355.706, 296.907 359.144 C 289.956 360.405, 284.902 358.644, 282.580 354.155 C 281.726 352.504, 278.963 344.031, 276.439 335.326 C 273.916 326.622, 267.410 305.325, 261.982 288 C 250.107 250.097, 249.823 248.922, 251.090 243.032 C 252.798 235.091, 252.790 235.093, 262.698 239.802 C 267.557 242.111, 272.072 244, 272.731 244 C 278.990 244, 333 219.644, 333 216.822 C 333 215.511, 332.144 215.843, 319.708 221.966 M 162.272 234 C 154.699 253.581, 150.937 266.397, 153.518 263.815 C 154.621 262.712, 164.059 233.686, 163.660 232.624 C 163.428 232.006, 162.803 232.625, 162.272 234 M 328.964 234.067 C 328.104 235.675, 328.212 236.675, 329.452 238.567 C 331.214 241.256, 332.197 241.500, 335.066 239.965 C 337.228 238.808, 337.637 235.037, 335.800 233.200 C 333.914 231.314, 330.185 231.787, 328.964 234.067 M 417.335 232.695 C 416.144 232.927, 414.920 233.766, 414.616 234.558 C 414.162 235.740, 415.722 236.040, 423.281 236.220 C 437.831 236.567, 440.133 236.403, 441.028 234.954 C 441.490 234.207, 441.646 233.237, 441.375 232.798 C 440.878 231.994, 421.358 231.910, 417.335 232.695 M 170.532 236.270 C 168.150 241.969, 161 263.170, 161 264.531 C 161 265.250, 163.150 266.553, 165.777 267.426 C 168.405 268.299, 172.175 270.114, 174.157 271.460 C 176.138 272.807, 178.038 273.629, 178.379 273.287 C 178.721 272.946, 179 270.717, 179 268.333 C 179 264.701, 179.316 264, 180.953 264 C 182.542 264, 183.482 262.202, 185.995 254.359 L 189.083 244.717 186.791 242.239 C 184.195 239.431, 178.131 235.380, 174.398 233.961 C 172.149 233.106, 171.756 233.341, 170.532 236.270 M 293.500 258.779 C 294.659 259.969, 320.696 262.306, 322.230 261.358 C 324.642 259.867, 319.030 258.794, 306.184 258.290 C 296.837 257.923, 292.817 258.078, 293.500 258.779 M 293.592 266.852 C 292.965 267.865, 316.003 269.320, 318.359 268.416 C 319.255 268.072, 319.740 267.388, 319.435 266.895 C 318.730 265.754, 294.296 265.712, 293.592 266.852 M 186.500 269.536 C 188.150 270.292, 190.625 270.894, 192 270.874 C 194.435 270.839, 194.422 270.802, 191.500 269.464 C 189.850 268.708, 187.375 268.106, 186 268.126 C 183.565 268.161, 183.578 268.198, 186.500 269.536 M 184.667 272.667 C 184.300 273.033, 184 274.375, 184 275.648 C 184 278.422, 188.180 279.925, 190.513 277.989 C 192.860 276.041, 192.264 274.288, 188.851 273.098 C 185.129 271.800, 185.495 271.838, 184.667 272.667 M 198.275 274.788 C 197.651 276.280, 196.340 278.719, 195.363 280.209 C 193.639 282.838, 193.653 283.037, 195.804 286.865 C 197.593 290.048, 197.827 291.326, 197.011 293.471 C 195.511 297.417, 195.773 299, 197.927 299 C 200.797 299, 204 294.312, 204 290.112 C 204 287.026, 200.715 273.382, 199.737 272.404 C 199.557 272.224, 198.899 273.297, 198.275 274.788 M 295 274.025 C 290.426 275.305, 295.109 276.092, 305.490 275.788 C 312.482 275.584, 315.463 275.123, 315.770 274.198 C 316.107 273.181, 314.154 272.943, 306.851 273.111 C 301.708 273.229, 296.375 273.640, 295 274.025 M 205.079 275.583 C 205.127 276.748, 205.364 276.985, 205.683 276.188 C 205.972 275.466, 205.936 274.603, 205.604 274.271 C 205.272 273.939, 205.036 274.529, 205.079 275.583 M 206.570 280.367 C 206.859 281.943, 207.335 284.423, 207.626 285.878 C 207.917 287.333, 207.468 290.543, 206.629 293.011 C 205.365 296.732, 205.349 297.171, 206.539 295.576 C 208.904 292.407, 209.295 287.583, 207.611 282.363 C 206.748 279.688, 206.280 278.790, 206.570 280.367 M 299.500 280.810 C 296.750 280.980, 294.072 281.543, 293.550 282.060 C 292.956 282.647, 296.427 283, 302.800 283 C 310.406 283, 313 282.675, 313 281.724 C 313 280.414, 309.597 280.184, 299.500 280.810 M 421.852 282.861 C 419.295 283.889, 414.392 286.703, 410.956 289.115 L 404.709 293.500 389.354 293.820 C 380.909 293.997, 374 294.522, 374 294.989 C 374 299.049, 373.522 298.998, 411.857 299.035 C 439.329 299.061, 450.502 299.432, 456.500 300.515 C 466.939 302.401, 468 302.372, 468 300.194 C 468 297.288, 453.412 295.028, 429.955 294.302 C 418.980 293.962, 410 293.337, 410 292.911 C 410 292.486, 413.210 290.532, 417.134 288.569 C 426.079 284.094, 433.378 283.764, 442.295 287.430 C 449.196 290.268, 448.241 288.169, 440.950 284.475 C 434.311 281.110, 427.616 280.545, 421.852 282.861 M 181.523 291.930 C 180.622 294.642, 175.861 306.887, 170.943 319.143 C 166.024 331.398, 162 342.034, 162 342.780 C 162 345.405, 171.096 341.309, 173.537 337.584 C 174.392 336.279, 177.267 329.135, 179.925 321.710 C 185.523 306.070, 189.089 297.974, 192.017 294.252 L 194.096 291.608 190.298 289.309 C 184.652 285.891, 183.405 286.263, 181.523 291.930 M 308.500 288.562 C 307.950 288.720, 304.462 289.145, 300.750 289.505 C 297.038 289.865, 294 290.632, 294 291.209 C 294 292.480, 308.010 291.331, 309.433 289.943 C 310.500 288.903, 309.981 288.135, 308.500 288.562 M 123.500 295.880 C 105.416 302.421, 88.778 318.366, 80.916 336.691 C 74.880 350.763, 72.464 375.434, 75.386 393.177 C 78.409 411.531, 84.077 422.988, 95.507 433.845 C 103.588 441.521, 111.972 446.310, 121.093 448.460 C 133.681 451.427, 143.632 450.131, 157 443.784 C 168.833 438.165, 180.560 426.403, 187.195 413.500 C 191.706 404.726, 196.075 393.357, 195.926 390.782 C 195.885 390.077, 194.827 392.425, 193.575 396 C 188.658 410.038, 183.580 417.724, 173.715 426.057 C 166.275 432.342, 154.626 438.574, 145 441.422 C 134.380 444.563, 119.762 443.324, 109.985 438.454 C 93.675 430.329, 82.599 415.560, 77.397 395 C 74.674 384.235, 74.910 360.676, 77.852 349.704 C 85.373 321.647, 108.801 299.274, 133.727 296.344 C 136.658 296, 139.295 295.331, 139.587 294.859 C 140.560 293.285, 128.572 294.046, 123.500 295.880 M 201.188 301.750 C 204.600 308.965, 207.641 313.956, 208.464 313.694 C 209.685 313.305, 214.943 304.065, 214.977 302.250 C 214.993 301.365, 212.929 301, 207.917 301 C 204.021 301, 200.993 301.337, 201.188 301.750 M 306.516 304.284 C 304.100 306.700, 302.911 309.111, 302.020 313.404 C 298.093 332.318, 311.785 348.415, 322.600 337.600 C 326.841 333.359, 327.089 330.906, 322.923 334.411 C 318.414 338.206, 312.743 338.007, 308.926 333.921 C 302.721 327.279, 302.525 314.384, 308.537 308.372 C 311.597 305.312, 317.758 305.133, 321.139 308.005 L 323.500 310.011 320.835 309.063 C 316.358 307.469, 311.494 309.440, 309.491 313.659 C 307.472 317.915, 307.884 324.648, 310.399 328.486 C 312.790 332.135, 320.545 332.095, 324.923 328.411 C 327.752 326.031, 327.998 325.326, 327.978 319.661 C 327.938 308.309, 322.334 301.012, 313.650 301.004 C 310.629 301.001, 309.093 301.707, 306.516 304.284 M 218.118 306.467 C 217.031 308.923, 214.765 312.935, 213.082 315.381 L 210.021 319.829 211.815 323.836 C 213.288 327.126, 213.787 327.562, 214.601 326.271 C 215.246 325.248, 217.614 324.531, 221.372 324.219 C 227.018 323.751, 227.137 323.679, 226.527 321.120 C 225.249 315.764, 220.921 302, 220.515 302 C 220.283 302, 219.204 304.010, 218.118 306.467 M 429.716 303.282 C 427.739 304.809, 427.107 308.155, 428.691 308.710 C 430.094 309.202, 433.389 303.359, 432.144 302.589 C 431.677 302.300, 430.584 302.612, 429.716 303.282 M 146.699 306.794 C 144.601 312.038, 142 323.293, 142 327.129 C 142 329.519, 142.358 330.030, 143.750 329.624 C 149.388 327.980, 154.663 327.889, 155.930 329.415 C 157.683 331.528, 159.706 331.418, 160.922 329.145 C 162.691 325.840, 168 310.667, 168 308.917 C 168 306.685, 161.156 303.942, 153.908 303.270 L 148.317 302.751 146.699 306.794 M 119.250 306.220 C 117.091 307.262, 117 307.821, 117 320.071 C 117 327.092, 116.727 333.548, 116.393 334.418 C 116.059 335.288, 116.194 336, 116.692 336 C 117.190 336, 118.604 331.613, 119.834 326.250 C 121.064 320.887, 122.689 313.913, 123.445 310.750 C 124.955 304.435, 124.337 303.767, 119.250 306.220 M 292.571 307.571 C 290.456 309.687, 290.592 311.711, 292.934 312.965 C 295.816 314.507, 296.787 314.255, 298.595 311.495 C 299.918 309.476, 299.996 308.700, 298.996 307.495 C 297.386 305.555, 294.554 305.589, 292.571 307.571 M 438.500 308.842 C 436.850 309.850, 434.825 311.494, 434 312.494 C 432.850 313.888, 433.666 313.692, 437.492 311.656 C 445.549 307.369, 451.351 308.248, 455.050 314.314 C 456.118 316.066, 456.991 317.050, 456.990 316.500 C 456.985 314.694, 453.167 309.661, 450.810 308.353 C 447.477 306.503, 441.967 306.722, 438.500 308.842 M 108.482 313.117 C 105.742 315.381, 103.500 317.813, 103.500 318.521 C 103.500 319.230, 105.733 322.890, 108.461 326.655 L 113.423 333.500 114.113 328.500 C 115.540 318.154, 115.768 309, 114.598 309 C 113.974 309, 111.222 310.852, 108.482 313.117 M 372.318 320.202 C 371.725 321.502, 368.450 326.078, 365.040 330.369 C 361.629 334.661, 358.988 338.316, 359.169 338.492 C 359.351 338.668, 363.942 340.020, 369.371 341.496 C 378.967 344.105, 379.363 344.133, 383.605 342.513 C 386.004 341.597, 390.112 339.061, 392.734 336.878 C 395.355 334.695, 400.348 331.539, 403.828 329.866 C 407.309 328.192, 409.985 326.652, 409.776 326.443 C 409.443 326.110, 377.987 322, 375.775 322 C 375.313 322, 374.589 321.063, 374.165 319.918 C 373.408 317.870, 373.378 317.875, 372.318 320.202 M 457.079 319.583 C 457.127 320.748, 457.364 320.985, 457.683 320.188 C 457.972 319.466, 457.936 318.603, 457.604 318.271 C 457.272 317.939, 457.036 318.529, 457.079 319.583 M 94.859 327.275 C 92.307 330.699, 89.286 335.363, 88.145 337.641 L 86.071 341.781 89.988 344.373 C 92.142 345.799, 96.582 347.710, 99.855 348.620 C 105.755 350.260, 105.836 350.254, 109.153 347.935 C 113.681 344.771, 113.962 344.194, 112.724 340.606 C 111.563 337.241, 101.082 320.984, 100.100 321.025 C 99.770 321.039, 97.412 323.851, 94.859 327.275 M 449.193 322.750 C 451.783 325.765, 452.164 328.162, 450.369 330.145 C 449.446 331.165, 447.972 331.986, 447.095 331.968 C 445.640 331.939, 445.641 331.829, 447.104 330.714 C 448.894 329.351, 450.593 324.985, 449.317 325.027 C 448.868 325.042, 447.402 326.834, 446.060 329.010 C 443.818 332.644, 443.480 332.840, 441.909 331.418 C 439.252 329.013, 438.310 331.754, 440.902 334.347 L 443.048 336.492 447.774 333.996 C 451.721 331.911, 452.551 330.972, 452.810 328.296 C 453.183 324.440, 451.533 321, 449.310 321 C 447.861 321, 447.849 321.185, 449.193 322.750 M 458.300 327 C 458.300 330.025, 458.487 331.262, 458.716 329.750 C 458.945 328.238, 458.945 325.762, 458.716 324.250 C 458.487 322.738, 458.300 323.975, 458.300 327 M 180.500 333 C 179.498 334.107, 178.904 335.237, 179.179 335.512 C 179.454 335.787, 180.498 335.107, 181.500 334 C 182.502 332.893, 183.096 331.763, 182.821 331.488 C 182.546 331.213, 181.502 331.893, 180.500 333 M 137.677 333.599 C 133.508 335.068, 125.042 341.406, 121.881 345.425 C 118.203 350.100, 113.067 362.686, 111.981 369.683 C 110.743 377.664, 112.589 389.307, 116.225 396.450 C 120.945 405.721, 129.745 413.680, 136.790 415.049 C 140.481 415.766, 140.484 415.771, 137.331 415.885 C 134.261 415.996, 134.188 416.103, 135.004 419.250 C 135.468 421.038, 136.154 424.899, 136.529 427.832 C 137.187 432.980, 137.302 433.142, 139.855 432.528 C 141.310 432.178, 145.286 430.602, 148.691 429.026 L 154.883 426.160 153.833 422.330 C 153.256 420.223, 152.393 417.762, 151.916 416.860 C 151.273 415.646, 151.551 415.089, 152.989 414.713 C 154.226 414.390, 155.131 414.803, 155.482 415.853 C 155.785 416.759, 156.889 418.611, 157.936 419.969 L 159.839 422.438 163.879 417.969 C 168.080 413.321, 169.018 410.328, 166.568 409.388 C 165.472 408.967, 165.977 407.743, 168.722 404.169 C 172.699 398.989, 177.478 389.251, 178.497 384.250 C 179.300 380.307, 177.844 380.019, 172.055 382.972 C 166.374 385.870, 161.902 392, 165.469 392 C 166.371 392, 166.713 392.585, 166.355 393.518 C 166.035 394.352, 165.038 394.915, 164.140 394.768 C 163.174 394.609, 161.883 395.723, 160.974 397.500 C 160.130 399.150, 158.778 400.558, 157.970 400.630 C 157.161 400.701, 154.137 401.707, 151.250 402.865 C 148.363 404.023, 146 404.576, 146 404.094 C 146 403.612, 147.800 402.497, 150 401.617 C 152.200 400.736, 154 399.563, 154 399.008 C 154 397.261, 149.700 397.927, 144.079 400.543 C 138.617 403.086, 137.059 402.801, 137.015 399.250 C 136.996 397.709, 134.785 397.615, 133.307 399.093 C 131.483 400.917, 127.590 397.520, 124.495 391.403 C 120.702 383.907, 119.776 369.073, 122.650 361.856 C 124.565 357.050, 133.220 348.480, 140.106 344.575 C 142.730 343.087, 143.103 342.559, 141.750 342.251 C 139.400 341.717, 139.507 339, 141.878 339 C 144.126 339, 146.431 336.507, 145.530 335.049 C 144.118 332.763, 141.447 332.270, 137.677 333.599 M 426.562 336 C 428.163 344.551, 433.481 350, 440.228 350 C 446.510 350, 458.129 339.386, 457.961 333.800 C 457.939 333.085, 457.324 333.871, 456.594 335.548 C 454.710 339.874, 446.460 346.823, 442.275 347.608 C 436.507 348.690, 432.680 346.146, 429.037 338.806 C 426.479 333.651, 426.027 333.139, 426.562 336 M 193.439 335.299 C 192.755 337.082, 197.459 349.320, 199.029 349.843 C 200.627 350.376, 199.715 343.826, 197.377 337.985 C 195.754 333.929, 194.336 332.962, 193.439 335.299 M 185.507 339.989 C 185.157 340.555, 185.558 340.723, 186.448 340.382 C 188.180 339.717, 188.497 339, 187.059 339 C 186.541 339, 185.843 339.445, 185.507 339.989 M 389.187 341.990 C 384.633 344.984, 384.617 344.950, 391.250 346.426 C 393.895 347.015, 394 346.885, 394 343.019 C 394 340.809, 393.887 339.035, 393.750 339.078 C 393.613 339.121, 391.559 340.431, 389.187 341.990 M 148.750 343.080 C 147.787 343.641, 147 344.682, 147 345.395 C 147 347.426, 150.540 350.114, 152.317 349.432 C 154.507 348.592, 155.432 345.225, 153.960 343.452 C 152.557 341.761, 151.183 341.663, 148.750 343.080 M 331 344.384 C 331 345.732, 332.276 346, 338.700 346 C 344.699 346, 346.134 345.734, 345.197 344.797 C 344.536 344.136, 341.071 343.408, 337.497 343.181 C 332.010 342.831, 331 343.018, 331 344.384 M 84.795 345.782 C 84.275 347.681, 85.038 348.710, 89.335 351.908 C 95.435 356.448, 98.957 358.376, 99.733 357.600 C 100.519 356.814, 92.077 349.225, 88.779 347.752 C 87.282 347.084, 85.914 345.854, 85.738 345.019 C 85.529 344.025, 85.203 344.288, 84.795 345.782 M 184.200 347.200 C 181.258 350.142, 184.310 353.969, 188.359 352.416 C 190.456 351.611, 190.498 347.405, 188.418 346.607 C 186.186 345.750, 185.562 345.838, 184.200 347.200 M 128 349.559 C 128 350.416, 128.450 350.840, 129 350.500 C 129.550 350.160, 130 349.459, 130 348.941 C 130 348.423, 129.550 348, 129 348 C 128.450 348, 128 348.702, 128 349.559 M 82.103 358.332 C 80.852 365.514, 80.616 380.018, 81.750 379.966 C 82.162 379.947, 86.100 378.034, 90.500 375.716 C 101.847 369.736, 101.966 366.291, 91.129 357.535 C 87.361 354.491, 84.037 352, 83.742 352 C 83.447 352, 82.709 354.849, 82.103 358.332 M 121.573 355.951 C 119.879 356.566, 119.845 356.727, 121.291 357.281 C 122.196 357.629, 123.220 357.452, 123.568 356.890 C 124.461 355.446, 123.809 355.139, 121.573 355.951 M 408.095 358.607 C 406.521 360.607, 406.280 361.654, 407.057 363.107 C 408.329 365.482, 409.990 365.562, 410.032 363.250 C 410.049 362.288, 410.724 360.626, 411.532 359.559 C 414.715 355.350, 411.382 354.427, 408.095 358.607 M 424.015 361.250 C 424.024 363.038, 424.463 365.175, 424.991 366 C 425.829 367.309, 426.423 367.246, 429.658 365.500 C 431.697 364.400, 433.529 362.987, 433.729 362.360 C 434.003 361.504, 426.443 358, 424.322 358 C 424.145 358, 424.007 359.462, 424.015 361.250 M 185.701 361.632 C 185.316 362.018, 185 363.158, 185 364.167 C 185 365.469, 185.745 366, 187.570 366 C 189.659 366, 190.079 365.582, 189.820 363.760 C 189.503 361.543, 187.055 360.278, 185.701 361.632 M 117 362.882 C 117 363.432, 117.450 364.160, 118 364.500 C 118.550 364.840, 119 364.668, 119 364.118 C 119 363.568, 118.550 362.840, 118 362.500 C 117.450 362.160, 117 362.332, 117 362.882 M 155.579 369.319 C 154.591 370.041, 153.950 371.502, 154.155 372.566 C 154.688 375.336, 161.500 375.388, 161.500 372.622 C 161.500 371.589, 160.572 370.128, 159.438 369.375 C 157.729 368.240, 157.067 368.231, 155.579 369.319 M 187.543 369.931 C 186.803 371.128, 188.684 372.313, 190.016 371.490 C 191.135 370.799, 190.400 369, 189 369 C 188.515 369, 187.859 369.419, 187.543 369.931 M 118.500 373 C 118.840 373.550, 119.316 374, 119.559 374 C 119.802 374, 120 373.550, 120 373 C 120 372.450, 119.523 372, 118.941 372 C 118.359 372, 118.160 372.450, 118.500 373 M 165.174 377.314 C 163.978 378.587, 163 379.937, 163 380.314 C 163 381.541, 167.450 380.974, 169.398 379.499 C 170.968 378.311, 171.077 377.797, 170.026 376.531 C 168.333 374.491, 167.736 374.588, 165.174 377.314 M 90.717 382.963 C 86.437 384.486, 82.666 386, 82.338 386.329 C 81.589 387.077, 86.804 404.001, 87.782 403.996 C 88.564 403.992, 93.613 401.073, 98.743 397.658 C 102.496 395.161, 102.736 393.118, 100.189 385.347 L 98.500 380.195 90.717 382.963 M 116.500 381 C 116.160 381.550, 116.359 382, 116.941 382 C 117.523 382, 118 381.550, 118 381 C 118 380.450, 117.802 380, 117.559 380 C 117.316 380, 116.840 380.450, 116.500 381 M 159.600 389.467 C 156.070 392.997, 155.143 395.352, 156.866 396.417 C 157.950 397.087, 160.243 394.518, 162.453 390.157 C 164.820 385.488, 163.821 385.246, 159.600 389.467 M 171 389.500 C 170.282 390.365, 170.185 391, 170.771 391 C 171.329 391, 172.045 390.325, 172.362 389.500 C 172.678 388.675, 172.781 388, 172.591 388 C 172.401 388, 171.685 388.675, 171 389.500 M 119 391.559 C 119 392.416, 119.450 392.840, 120 392.500 C 120.550 392.160, 121 391.459, 121 390.941 C 121 390.423, 120.550 390, 120 390 C 119.450 390, 119 390.702, 119 391.559 M 122.553 396.915 C 122.231 397.436, 122.394 398.125, 122.915 398.447 C 123.436 398.769, 124.125 398.606, 124.447 398.085 C 124.769 397.564, 124.606 396.875, 124.085 396.553 C 123.564 396.231, 122.875 396.394, 122.553 396.915 M 105.751 399.750 C 103.207 402.417, 97 414.940, 97 417.406 C 97 418.077, 98.347 419.916, 99.993 421.494 L 102.987 424.361 105.641 421.931 C 108.055 419.721, 108.248 419.681, 107.762 421.500 C 107.468 422.600, 106.922 424.237, 106.550 425.137 C 106.083 426.266, 106.746 427.375, 108.686 428.712 C 111.797 430.856, 117.897 433.487, 118.359 432.885 C 118.521 432.673, 120.087 428.925, 121.838 424.556 L 125.021 416.611 120.162 412.360 C 117.489 410.022, 113.997 405.611, 112.401 402.557 C 110.806 399.503, 109.247 397.004, 108.937 397.002 C 108.627 397.001, 107.194 398.238, 105.751 399.750 M 127.553 402.915 C 127.231 403.436, 127.394 404.125, 127.915 404.447 C 128.436 404.769, 129.125 404.606, 129.447 404.085 C 129.769 403.564, 129.606 402.875, 129.085 402.553 C 128.564 402.231, 127.875 402.394, 127.553 402.915 M 94.250 405.315 C 91.912 406.458, 90 407.931, 90 408.586 C 90 409.974, 93.666 414.741, 94.164 414 C 95.561 411.921, 99.217 403.891, 98.899 403.599 C 98.679 403.399, 96.588 404.171, 94.250 405.315 M 141.500 405 C 141.160 405.550, 141.584 406, 142.441 406 C 143.298 406, 144 405.550, 144 405 C 144 404.450, 143.577 404, 143.059 404 C 142.541 404, 141.840 404.450, 141.500 405 M 154.500 405 C 154.160 405.550, 154.359 406, 154.941 406 C 155.523 406, 156 405.550, 156 405 C 156 404.450, 155.802 404, 155.559 404 C 155.316 404, 154.840 404.450, 154.500 405 M 135.500 406 C 135.160 406.550, 135.332 407, 135.882 407 C 136.432 407, 137.160 406.550, 137.500 406 C 137.840 405.450, 137.668 405, 137.118 405 C 136.568 405, 135.840 405.450, 135.500 406 M 147.500 408 C 147.160 408.550, 147.359 409, 147.941 409 C 148.523 409, 149 408.550, 149 408 C 149 407.450, 148.802 407, 148.559 407 C 148.316 407, 147.840 407.450, 147.500 408 M 125.149 425.083 C 123.409 429.529, 122.240 433.579, 122.551 434.083 C 123.527 435.661, 131.994 435.180, 132.634 433.511 C 133.331 431.696, 130.175 417, 129.088 417 C 128.662 417, 126.889 420.637, 125.149 425.083" stroke="none" fill="black" fill-rule="evenodd"/>
</svg>