<svg xmlns="http://www.w3.org/2000/svg" width="512" height="512" viewBox="0 0 512 512" version="1.1">
	<path d="M 222.708 13.459 C 184.967 18.248, 148.400 31.198, 121 49.476 C 85.476 73.173, 56.381 109.691, 41.705 149 C 38.681 157.100, 31 181.632, 31 183.190 C 31 183.470, 34.574 182.665, 38.942 181.400 C 54.430 176.914, 66.544 175.646, 93.500 175.692 C 107.250 175.715, 124.800 176.253, 132.500 176.887 C 173.361 180.251, 229.144 187.800, 268 195.224 C 279.851 197.488, 287.459 198.383, 295 198.400 C 307.632 198.429, 312.045 196.857, 328.692 186.395 C 343.259 177.242, 349.753 174.111, 356.948 172.772 C 375.177 169.382, 396.341 180.536, 409.081 200.246 C 422.870 221.581, 420.300 248.405, 402.712 266.722 C 399.217 270.361, 394.396 274.127, 391.282 275.651 C 387.368 277.566, 385.379 279.298, 384.008 281.985 C 380.674 288.519, 349.748 315.934, 334.287 326.060 C 324.562 332.429, 315.453 335.548, 279.274 344.897 C 244.094 353.987, 239.761 354.851, 209 358.917 C 126.019 369.886, 42.342 369.283, 24.493 357.588 L 21.885 355.878 24.442 353.867 C 25.849 352.760, 27.016 351.325, 27.036 350.677 C 27.087 349.011, 30.744 344.970, 36 340.773 C 38.475 338.796, 47.949 333.541, 57.054 329.095 C 82.507 316.666, 83.131 315.757, 86.970 285.500 C 89.228 267.702, 89.487 261.419, 88 260.500 C 87.450 260.160, 86.986 260.471, 86.969 261.191 C 86.951 261.911, 86.080 267.450, 85.033 273.500 C 83.526 282.204, 82.698 284.786, 81.064 285.872 C 79.929 286.627, 79 288.282, 79 289.551 C 79 292.152, 76.354 295.282, 74.634 294.716 C 72.432 293.992, 72.721 289.719, 75.092 287.931 C 77.291 286.272, 77.310 286.123, 75.662 283.606 C 73.613 280.480, 71.692 280.308, 68.991 283.009 C 67.365 284.635, 67.045 286.062, 67.311 290.496 C 67.673 296.518, 67.535 296.226, 70.841 297.948 C 73.884 299.533, 77.911 297.953, 80.353 294.216 C 82.126 291.503, 82.127 291.506, 81.502 298 C 80.711 306.232, 77.232 313.959, 72.790 317.346 C 70.892 318.794, 63.901 322.448, 57.254 325.465 C 43.801 331.573, 37.018 335.365, 30.136 340.627 L 25.500 344.170 25 330.335 C 24.277 310.330, 25.537 271.739, 27.444 255.500 C 29.578 237.323, 32.573 219.667, 33.961 217.074 C 40.252 205.318, 103.216 204.007, 179.787 214.036 C 206.197 217.495, 243.457 225, 261.990 230.594 C 281.874 236.595, 294.921 245.987, 301.238 258.847 C 304.329 265.138, 304.494 266.036, 304.380 275.993 C 304.151 296.072, 300.436 316.128, 295.326 324.875 C 293.920 327.281, 291.194 330.993, 289.268 333.125 C 287.343 335.256, 286.171 337, 286.665 337 C 288.715 337, 312.675 329.711, 319.378 327.049 C 323.363 325.466, 328.988 322.776, 331.879 321.071 C 338.987 316.881, 358.687 302.099, 368.500 293.595 C 372.900 289.781, 376.882 286.333, 377.349 285.931 C 377.816 285.530, 377.927 284.347, 377.596 283.302 C 377.102 281.745, 375.371 281.199, 367.986 280.266 C 361.359 279.430, 357.066 278.204, 351.740 275.629 C 324.894 262.649, 313.748 237.382, 322.455 209.243 C 324.031 204.152, 325.042 199.709, 324.704 199.370 C 324.365 199.031, 319.905 199.919, 314.794 201.344 C 303.031 204.621, 295.106 205.435, 287.500 204.148 C 284.200 203.590, 270.998 201.290, 258.163 199.037 C 216.997 191.811, 176.383 186.411, 140.500 183.391 C 112.037 180.996, 67.156 180.935, 52.379 183.272 C 38.460 185.474, 31.292 187.572, 30.140 189.784 C 28.928 192.109, 25.448 208.766, 22.991 224 C 16.305 265.468, 14.142 298.749, 15.803 334.628 C 17.166 364.083, 18.566 375.648, 24.560 407 C 31.433 442.943, 30.920 441.206, 35.253 443.249 C 43.437 447.108, 56.486 450.220, 66.500 450.700 C 74.995 451.107, 91.431 449.929, 92.484 448.837 C 92.663 448.652, 92.261 441.075, 91.590 432 C 90.733 420.400, 89.871 414.550, 88.686 412.300 C 87.758 410.539, 87 408.695, 87 408.200 C 87 407.350, 100.689 397.829, 105.933 395.032 C 108.060 393.897, 107.885 394.389, 104.536 398.951 C 98.544 407.114, 98.093 409.291, 98.044 430.311 L 98 449.123 102.750 448.484 C 134.973 444.154, 199.042 431.151, 208.873 426.946 C 211.044 426.017, 211.114 425.783, 209.693 424.213 C 207.081 421.327, 206.197 417.787, 203.981 401.335 C 201.728 384.609, 201.896 374.578, 204.535 368.262 C 206.001 364.754, 208.539 363.374, 215.309 362.404 L 219.500 361.804 216.769 364.152 C 213.099 367.308, 211 372.809, 211 379.272 C 211 386.967, 216.732 422.581, 218.530 426.058 C 219.367 427.676, 220.490 429, 221.026 429 C 221.562 429, 222 429.401, 222 429.890 C 222 430.948, 212.189 433.642, 191 438.402 C 150.493 447.503, 125.803 451.812, 98.804 454.494 C 69.240 457.431, 59.191 456.630, 42.523 450.009 C 38.246 448.310, 34.582 447.085, 34.381 447.286 C 34.180 447.487, 35.587 452.318, 37.508 458.022 C 39.428 463.726, 41 469.583, 41 471.038 C 41 473.233, 41.638 473.870, 44.750 474.779 C 51.322 476.699, 60.104 477.903, 75 478.927 C 82.975 479.476, 94 480.238, 99.500 480.622 L 109.500 481.319 103.703 482.530 C 100.514 483.196, 93.863 485.472, 88.924 487.588 C 81.880 490.604, 80.366 491.591, 81.905 492.161 C 82.985 492.560, 106.369 493.444, 133.870 494.126 C 173.536 495.109, 192.413 495.111, 225.186 494.135 C 303.293 491.809, 322.310 490.793, 360 486.932 C 418.024 480.989, 474.884 468.537, 482.409 460.126 C 486.894 455.112, 479.778 450.112, 461.596 445.499 C 446.187 441.590, 417.399 438.021, 401 437.986 C 392.915 437.968, 389.945 437.068, 392.203 435.318 C 398.250 430.633, 465.617 392.509, 473.129 389.521 L 479.758 386.884 480.752 381.859 C 481.711 377.009, 481.671 376.854, 479.623 377.416 C 478.455 377.736, 467.150 379.345, 454.500 380.992 C 441.850 382.639, 424.300 384.934, 415.500 386.093 C 397.534 388.458, 388.128 391.149, 359 402.256 C 340.214 409.419, 334 411.362, 334 410.073 C 334 408.145, 359.032 395.597, 377 388.518 C 382.225 386.459, 389.425 383.527, 393 382.001 C 398.862 379.500, 402.001 379.020, 425 377.116 C 439.025 375.954, 456.462 374.710, 463.750 374.352 L 477 373.701 477 369.902 C 477 364.492, 481.172 351.948, 489.021 333.760 L 495.814 318.020 494.422 307.427 C 493.156 297.786, 493.203 295.470, 494.948 281.667 C 496.002 273.325, 497.150 261.775, 497.498 256 C 497.846 250.225, 498.575 243.175, 499.119 240.333 C 500.297 234.174, 498.219 221.697, 491.819 196.500 C 485.656 172.234, 479.661 156.294, 467.759 132.530 L 461.764 120.560 462.393 113.530 L 463.023 106.500 449.261 94.365 C 420.069 68.621, 402.786 56.277, 376.507 42.400 C 350.728 28.787, 325.012 20.243, 293.762 14.909 C 277.820 12.187, 238.974 11.395, 222.708 13.459 M 219.527 23.588 C 197.773 26.968, 177.161 33.657, 155.202 44.463 C 128.063 57.818, 114.777 67.247, 96.492 86.131 C 84.479 98.538, 77.407 108.153, 71.212 120.500 C 66.010 130.867, 64.315 135.034, 62.556 141.769 C 60.642 149.099, 61.958 147.359, 65.943 137.290 C 77.373 108.411, 100.970 79.334, 126.887 62.193 C 137.938 54.884, 144.021 51.682, 139.964 55.309 C 139.159 56.029, 134.781 59.908, 130.235 63.929 C 120.997 72.100, 112.464 82.243, 103.961 95.161 C 98.627 103.265, 91.308 118.642, 92.309 119.642 C 92.555 119.889, 94.010 117.933, 95.542 115.295 C 108.838 92.403, 143.138 61.996, 172.033 47.483 C 189.047 38.938, 214.378 31.610, 236.017 28.972 C 247.572 27.563, 276.413 28.009, 278.022 29.621 C 278.848 30.448, 276.635 31.328, 269.571 32.983 C 264.307 34.217, 260 35.409, 260 35.632 C 260 35.856, 267.988 35.747, 277.750 35.391 C 297.597 34.666, 314.910 35.890, 329.489 39.048 C 361.053 45.887, 395.064 63.141, 427.440 88.739 C 435.176 94.856, 438.066 96.757, 435.500 94.044 C 430.315 88.560, 417.733 78.431, 407 71.100 C 382.697 54.502, 349.703 39.819, 324 34.164 C 293.718 27.502, 279.248 24.683, 269 23.448 C 254.521 21.703, 231.232 21.769, 219.527 23.588 M 231 55.959 C 191.085 64.496, 151.118 99.337, 134.771 139.845 C 131.223 148.639, 130.856 151, 133.037 151 C 133.542 151, 137.180 146.162, 141.122 140.250 C 167.470 100.727, 201.760 71.330, 238.360 56.886 C 246.946 53.498, 244.152 53.146, 231 55.959 M 293 58.471 C 276.560 61.247, 261.043 66.425, 246 74.153 C 235.055 79.776, 231.879 81.997, 233.771 82.705 C 234.470 82.967, 237.170 84.311, 239.771 85.694 C 271.020 102.300, 295.087 123.442, 324.220 159.881 C 329.770 166.821, 334.616 172.853, 334.990 173.285 C 335.365 173.717, 338.489 172.738, 341.935 171.108 C 362.916 161.186, 383.839 166.401, 403.240 186.387 C 406.953 190.213, 410.164 193.153, 410.375 192.921 C 413.486 189.511, 423.852 161.588, 428.046 145.321 C 431.610 131.498, 431.823 124.537, 428.858 118.710 C 423.706 108.581, 407.291 91.296, 393.500 81.476 C 377.903 70.370, 357.094 61.775, 338.074 58.582 C 326.818 56.693, 303.868 56.636, 293 58.471 M 244.655 105.829 C 242.160 108.585, 242.585 112.528, 245.635 114.927 C 253.216 120.891, 263.597 112.668, 256.686 106.174 C 253.709 103.378, 247.046 103.186, 244.655 105.829 M 354.300 179.862 C 329.206 188.533, 317.446 221.782, 330.246 247.872 C 338.956 265.624, 360.066 277.411, 377.135 274.053 C 401.245 269.310, 415.950 247.447, 412.225 221.885 C 407.938 192.473, 378.858 171.376, 354.300 179.862 M 387.667 190.667 C 387.300 191.033, 387 191.963, 387 192.734 C 387 194.691, 397.150 206.025, 398.278 205.328 C 400.170 204.159, 397.821 198.393, 393.770 194.266 C 389.482 189.897, 388.824 189.509, 387.667 190.667 M 475.639 198.148 C 475.369 199.992, 474.636 205.325, 474.009 210 C 472.308 222.680, 463.571 263.229, 458.507 281.945 C 456.059 290.990, 454.240 298.573, 454.463 298.796 C 454.686 299.020, 456.200 296.566, 457.827 293.343 C 459.454 290.120, 463.819 282.312, 467.527 275.992 C 478.665 257.009, 489 236.354, 489 233.076 C 489 230.646, 477.692 196.427, 476.466 195.148 C 476.281 194.954, 475.908 196.304, 475.639 198.148 M 361.290 201.086 C 346.522 208.396, 342.640 228.912, 353.568 241.899 C 355.022 243.626, 358.301 246.268, 360.855 247.770 C 364.634 249.991, 366.712 250.499, 372 250.492 C 384.989 250.477, 392.880 242.543, 393.775 228.600 C 394.182 222.256, 393.902 220.466, 391.773 215.816 C 385.222 201.507, 372.682 195.447, 361.290 201.086 M 362.500 204.400 C 348.560 210.544, 346.532 231.161, 358.783 242.196 C 366.774 249.394, 377.380 249.367, 384.980 242.130 C 394.754 232.823, 392.216 213.532, 380.217 205.922 C 375.044 202.642, 367.885 202.027, 362.500 204.400 M 363.106 210.564 C 357.925 214.924, 356.547 224.203, 359.964 231.729 C 364.809 242.402, 379.519 242.856, 384.441 232.484 C 387.082 226.917, 386.245 218.321, 382.595 213.536 C 379.350 209.281, 376.554 208, 370.512 208 C 367.293 208, 365.357 208.670, 363.106 210.564 M 367.256 210.978 C 361.395 213.468, 358.863 225.983, 362.885 232.580 C 366.691 238.820, 375.331 239.515, 380.824 234.022 C 385.995 228.851, 385.724 220.080, 380.201 213.899 C 377.243 210.589, 371.319 209.252, 367.256 210.978 M 54.182 216.110 C 43.408 217.361, 39.231 218.698, 38.455 221.142 C 36.932 225.939, 46.784 233.646, 76.586 250.974 C 87.196 257.142, 96.559 262.709, 97.392 263.345 C 98.736 264.369, 98.576 266.759, 95.981 284.445 C 92.737 306.562, 91.575 310.851, 87.045 317.435 C 82.816 323.581, 77.306 327.126, 60.478 334.526 C 52.589 337.996, 43.517 342.621, 40.317 344.806 C 34.317 348.902, 29.309 353.642, 30.121 354.455 C 31.345 355.678, 43.053 357.977, 53.678 359.080 C 68.837 360.654, 119.091 360.661, 143 359.093 C 176.247 356.912, 232.636 349.394, 252.500 344.494 C 270.433 340.071, 283.526 331.799, 289.255 321.273 C 292.717 314.913, 294.871 301.887, 295.672 282.475 C 296.241 268.699, 296.121 267.063, 294.235 262.799 C 289.867 252.923, 280.008 244.981, 266.500 240.455 C 254.133 236.312, 202.485 226.639, 171 222.569 C 131.560 217.471, 110.051 216.786, 86.323 219.869 C 69.852 222.010, 62.946 224.281, 59.255 228.770 C 57.203 231.265, 57.010 231.323, 57.005 229.439 C 56.988 222.597, 68.373 219.123, 96.500 217.386 C 104.168 216.913, 107.597 216.384, 106 215.922 C 102.551 214.925, 63.153 215.067, 54.182 216.110 M 369.035 219.934 C 365.918 225.758, 370.617 232.983, 374.800 228.800 C 376.352 227.248, 376.352 220.752, 374.800 219.200 C 372.998 217.398, 370.202 217.754, 369.035 219.934 M 371 226 C 371 226.550, 371.450 227, 372 227 C 372.550 227, 373 226.550, 373 226 C 373 225.450, 372.550 225, 372 225 C 371.450 225, 371 225.450, 371 226 M 93.613 240.818 C 93.111 241.629, 96.392 245, 97.683 245 C 98.046 245, 99.165 245.745, 100.171 246.655 C 101.882 248.203, 101.998 248.187, 101.968 246.405 C 101.951 245.357, 101.388 243.787, 100.718 242.916 C 99.299 241.070, 94.358 239.612, 93.613 240.818 M 104 246.885 C 104 248.031, 107.671 250.418, 112.596 252.475 C 116.964 254.298, 116.503 253.680, 110.100 249.128 C 105.583 245.917, 104 245.335, 104 246.885 M 108.283 275.217 C 107.724 275.923, 106.024 282.125, 104.506 289 C 102.987 295.875, 100.242 305.977, 98.405 311.450 C 96.569 316.922, 95.265 321.598, 95.509 321.842 C 96.504 322.838, 99.197 319.374, 102.012 313.474 C 105.005 307.204, 110.605 285.926, 111.189 278.605 C 111.510 274.582, 110.094 272.931, 108.283 275.217 M 130.546 284.715 C 128.112 296.992, 122.519 316.026, 119.424 322.569 C 116.279 329.217, 110.501 333.885, 97.422 340.345 C 86.760 345.612, 81 348.090, 81 347.411 C 81 347.143, 86.217 344.415, 92.593 341.350 C 98.969 338.284, 105.737 334.414, 107.632 332.750 L 111.079 329.724 108.789 328.525 C 107.298 327.743, 106.065 327.660, 105.250 328.285 C 104.563 328.813, 104 329.004, 104 328.710 C 104 328.417, 98.938 330.408, 92.750 333.137 C 86.563 335.865, 78.268 339.454, 74.319 341.113 C 65.694 344.736, 64.304 346.118, 65.595 349.788 C 67.161 354.242, 70.102 354.969, 86.615 354.985 L 101.730 355 105.072 347.250 C 107.528 341.556, 110.072 337.766, 114.664 332.964 C 122.493 324.777, 125.032 319.261, 129.925 299.800 C 134.203 282.781, 135.074 276.886, 133.394 276.309 C 132.719 276.077, 131.609 279.351, 130.546 284.715 M 281.535 284.040 C 276.881 287.011, 272.185 298.222, 267.621 317.250 C 266.984 319.909, 268.222 321.068, 269.497 319.005 C 269.835 318.458, 270.986 317.543, 272.056 316.970 C 276.102 314.805, 273.950 318.735, 267.472 325.342 C 263.473 329.420, 258.533 333.220, 254.722 335.149 C 244.828 340.157, 229.980 344.090, 217.500 345.008 C 202.051 346.144, 184.639 349.442, 180.462 352.024 C 176.866 354.246, 175.835 355.661, 178.580 354.608 C 179.449 354.274, 184.286 353.538, 189.330 352.973 C 200.439 351.726, 223.805 347.406, 230 345.452 C 232.475 344.672, 238.550 342.858, 243.500 341.423 C 260.587 336.467, 272.805 328.278, 277.384 318.714 C 280.877 311.419, 287.314 281.912, 285.378 282.073 C 284.895 282.113, 283.166 282.998, 281.535 284.040 M 120.229 285.579 C 119.530 286.339, 118.967 287.195, 118.979 287.480 C 119.009 288.223, 118.656 289.571, 117.796 292 C 116.092 296.812, 113.018 311.220, 113.521 312.035 C 113.850 312.566, 113.641 313, 113.059 313 C 111.166 313, 111.941 316.596, 114.314 318.826 C 115.587 320.022, 116.931 321, 117.301 321 C 118.956 321, 124.761 301.944, 126.399 291.131 C 126.956 287.456, 126.819 286.856, 125.531 287.350 C 124.568 287.719, 124 287.370, 124 286.410 C 124 285.569, 123.588 285.136, 123.085 285.447 C 122.582 285.758, 122.020 285.604, 121.835 285.105 C 121.651 284.606, 120.928 284.819, 120.229 285.579 M 323.783 285.750 C 322.097 287.684, 320 291.470, 320 292.582 C 320 292.975, 321.030 291.767, 322.290 289.898 C 325.674 284.876, 329.391 285.179, 333.699 290.828 C 337.641 295.996, 337.820 298.270, 334.545 301.545 C 333.162 302.928, 332.650 304, 333.371 304 C 335.563 304, 339 299.504, 339 296.636 C 339 288.227, 328.300 280.572, 323.783 285.750 M 327.901 293.106 C 324.522 296.723, 324.322 298.076, 326.829 300.345 C 329.219 302.508, 330.567 302.433, 333 300 C 335.349 297.651, 335.645 293.185, 333.506 292.364 C 332.684 292.048, 332.260 291.388, 332.565 290.895 C 333.929 288.688, 330.518 290.305, 327.901 293.106 M 328.035 294.934 C 326.698 297.432, 326.739 299.053, 328.080 296.750 C 328.641 295.788, 329.752 295, 330.550 295 C 331.347 295, 332 294.550, 332 294 C 332 292.246, 329.109 292.927, 328.035 294.934 M 319.232 298 C 319.232 299.925, 319.438 300.712, 319.689 299.750 C 319.941 298.788, 319.941 297.212, 319.689 296.250 C 319.438 295.288, 319.232 296.075, 319.232 298 M 320.063 302.912 C 319.996 304.424, 324.723 313, 325.624 313 C 325.920 313, 325.245 311.514, 324.123 309.699 C 323.001 307.883, 321.643 305.296, 321.105 303.949 C 320.567 302.602, 320.098 302.135, 320.063 302.912 M 387 317 C 384.537 319.463, 384.286 326.144, 386.571 328.429 C 388.732 330.589, 393.328 330.401, 395.442 328.064 C 396.406 326.999, 397.239 324.545, 397.294 322.610 C 397.481 316.026, 391.327 312.673, 387 317 M 357.073 334.635 C 354.323 338.130, 354.455 341.546, 357.455 344.545 C 360.428 347.519, 361.954 347.611, 365.253 345.016 C 369.428 341.732, 369.606 335.440, 365.600 332.765 C 363.173 331.145, 359.119 332.034, 357.073 334.635 M 368.231 424.810 C 367.217 425.475, 367.267 426.505, 368.481 429.946 C 369.316 432.314, 370 434.578, 370 434.977 C 370 436.208, 341.839 437.239, 340.651 436.051 C 339.308 434.708, 327 434.661, 327 436 C 327 436.550, 327.650 437, 328.444 437 C 329.239 437, 331.112 438.052, 332.607 439.338 C 334.912 441.321, 335.338 442.498, 335.413 447.088 C 335.461 450.065, 335.161 453.422, 334.746 454.550 C 334.062 456.409, 334.317 456.561, 337.487 456.191 C 340.635 455.824, 341.087 455.373, 342.044 451.642 C 342.629 449.364, 343.212 447.113, 343.340 446.641 C 343.468 446.168, 349.615 444.047, 356.999 441.927 C 372.808 437.387, 372.896 437.418, 371.091 446.750 C 370.639 449.087, 370.412 451, 370.587 451 C 372.698 451, 376.556 447.830, 378.080 444.843 C 380.619 439.866, 380.506 434.428, 377.750 428.962 C 375.919 425.330, 374.942 424.452, 372.500 424.239 C 370.850 424.096, 368.929 424.353, 368.231 424.810 M 318 441.672 C 315.525 441.850, 311.700 442.232, 309.500 442.521 L 305.500 443.048 305.500 450.548 C 305.500 458.006, 305.514 458.046, 308 457.584 C 309.375 457.329, 314.100 456.830, 318.500 456.476 C 322.900 456.122, 327.470 455.212, 328.656 454.455 C 331.001 452.956, 332.615 446.513, 331.513 443.042 C 330.836 440.907, 329.939 440.816, 318 441.672 M 358.171 444.524 C 349.795 447.488, 346.464 449, 348.312 449 C 349.626 449, 364.585 443.745, 367 442.436 C 370.892 440.325, 368.313 440.935, 358.171 444.524" stroke="none" fill="black" fill-rule="evenodd"/>
</svg>