<svg xmlns="http://www.w3.org/2000/svg" width="512" height="512" viewBox="0 0 512 512" version="1.1">
	<path d="M 177.368 35.088 C 172.710 36.438, 167.358 42.959, 165.411 49.657 C 162.925 58.210, 163.884 70.282, 167.641 77.739 C 169.214 80.858, 171.722 84.295, 173.217 85.376 L 175.933 87.341 181.033 84.170 C 187.063 80.422, 187.150 80.409, 188.804 83.058 C 193.547 90.653, 196.098 97.221, 195.808 101.094 C 195.514 105.023, 195.274 105.298, 190.572 107.077 C 185.129 109.137, 179.188 114.378, 176.374 119.604 C 174.366 123.333, 173.223 123.587, 166.509 121.791 C 162.563 120.736, 161.774 120.797, 160.296 122.275 C 158.968 123.603, 158.810 124.565, 159.561 126.734 C 160.340 128.981, 162.959 130.721, 173.510 136 C 185.217 141.858, 186.485 142.749, 186.344 145.017 C 186.161 147.954, 176.128 165.197, 175.006 164.503 C 174.588 164.245, 173.734 162.001, 173.109 159.517 C 172.053 155.324, 171.739 155, 168.729 155 C 164.114 155, 159.023 156.634, 156.590 158.895 C 155.440 159.963, 148.200 163.293, 140.500 166.293 C 132.800 169.294, 124.790 172.763, 122.699 174.003 C 119.689 175.789, 117.992 176.134, 114.545 175.661 C 107.857 174.744, 107.324 175.998, 109.393 187.790 C 112.158 203.551, 116.050 218.846, 117.836 220.970 C 119.067 222.433, 122.448 223.471, 130.829 224.957 C 145.535 227.564, 149.986 228.801, 150.621 230.455 C 151.130 231.781, 148.484 237.731, 145.788 241.323 C 144.476 243.072, 144.080 243.077, 136.038 241.448 C 123.800 238.968, 111.216 239.798, 99.111 243.885 C 88.229 247.559, 72.977 255.165, 64.277 261.256 C 59.185 264.820, 49 273.497, 49 274.271 C 49 274.397, 54.062 274.469, 60.250 274.431 C 71.262 274.363, 71.697 274.272, 80.820 270.150 C 85.946 267.833, 92.678 265.277, 95.780 264.469 C 103.174 262.543, 114.347 262.604, 123.303 264.620 C 131.582 266.483, 134 267.552, 134 269.348 C 134 271.149, 125.414 287.768, 122.531 291.548 C 120.206 294.597, 119.839 294.710, 110.256 295.338 C 98.685 296.096, 87.347 298.787, 79.846 302.554 C 36.092 324.529, 20.024 382.877, 45.299 428 C 51.295 438.705, 64.965 452.160, 75.500 457.728 C 80.224 460.224, 82.681 461.997, 81.500 462.057 C 80.400 462.113, 72.894 462.466, 64.821 462.842 C 51.413 463.466, 47.757 464.091, 49.182 465.516 C 51.174 467.507, 158 469.042, 158 467.079 C 158 465.553, 142.333 463.090, 132.250 463.031 C 129.363 463.014, 127 462.550, 127 462 C 127 461.450, 127.563 460.999, 128.250 460.997 C 130.917 460.990, 143.326 453.934, 149.547 448.886 C 162.293 438.545, 171.727 423.055, 176.660 404.372 C 178.906 395.864, 179.269 392.427, 179.288 379.500 C 179.309 364.524, 178.745 361.017, 173.493 343.500 C 172.933 341.631, 173.289 341.522, 178.906 341.837 C 183.726 342.107, 185.722 341.722, 188.967 339.898 C 191.618 338.409, 192.864 337.084, 192.578 336.062 C 192.337 335.203, 190.464 325.833, 188.414 315.239 C 184.955 297.358, 184.641 293.191, 186.934 295.567 C 188.445 297.131, 197.010 342.390, 195.989 343.411 C 195.424 343.976, 194.821 343.696, 194.435 342.692 C 193.866 341.208, 193.526 341.194, 190.917 342.543 C 187.560 344.279, 186.506 347.462, 187.348 353.321 C 188.134 358.787, 200.483 396.562, 202.482 399.613 C 206.117 405.160, 203.693 404.785, 273 410.534 C 301.105 412.866, 331.032 413.552, 337.453 412.011 C 344.610 410.294, 347.223 411.815, 348.917 418.684 C 349.570 421.333, 352.167 427.768, 354.688 432.983 C 358.666 441.214, 360.542 443.724, 368.886 451.983 C 375.920 458.946, 380.647 462.653, 386.500 465.797 L 394.500 470.094 353.500 469.580 C 330.950 469.297, 306.200 468.628, 298.500 468.092 C 280.444 466.835, 162.264 466.678, 163.550 467.912 C 165.699 469.975, 256.773 473.492, 346 474.957 C 380.375 475.521, 419.300 476.175, 432.500 476.409 C 466.523 477.012, 475.533 475.262, 450.208 472.971 C 443.768 472.388, 436.025 471.652, 433 471.335 L 427.500 470.758 431.500 469.558 C 448.618 464.421, 464.434 450.308, 473.029 432.500 C 479.543 419.005, 481.472 409.903, 481.296 393.500 C 481.184 383.095, 480.641 378.506, 478.574 370.509 C 474.317 354.031, 465.131 337.375, 456.276 330.076 L 452.544 327 464.633 327 C 471.281 327, 478.783 326.717, 481.303 326.372 C 485.479 325.800, 486.023 325.399, 487.439 321.860 C 489.887 315.744, 494.131 293.236, 493.800 288.128 L 493.500 283.500 489 282.844 C 483.483 282.040, 452.076 281.650, 450 282.360 C 449.175 282.642, 441.525 283.063, 433 283.296 C 424.475 283.528, 416.375 284.203, 415 284.796 C 412.833 285.730, 413.298 285.882, 418.484 285.937 C 426.511 286.022, 435.931 290.535, 438.256 295.410 C 440.436 299.982, 442.219 309.614, 441.825 314.691 L 441.500 318.881 434.854 315.947 C 423.912 311.115, 416.737 309.694, 406.001 310.234 C 388.544 311.112, 375.107 317.980, 362.844 332.294 C 359.449 336.257, 356.280 339.655, 355.802 339.845 C 354.360 340.416, 352 337.888, 352 335.772 C 352 334.681, 353.138 332.436, 354.530 330.782 C 356.515 328.423, 356.810 327.476, 355.900 326.379 C 354.991 325.284, 355.326 324.138, 357.447 321.077 C 358.935 318.929, 361.019 316.388, 362.077 315.431 C 363.135 314.473, 364 312.868, 364 311.864 C 364 309.892, 362.639 309.437, 354.304 308.618 C 351.446 308.337, 347.621 307.303, 345.804 306.321 L 342.500 304.535 354.751 303.840 C 368.505 303.060, 371.591 302.005, 386.551 292.969 C 407.298 280.438, 413.287 279, 444.746 279 L 468.864 279 470.990 276.014 C 475.818 269.234, 487 241.229, 487 235.918 C 487 232.711, 482.935 231.999, 464.685 232.009 C 445.876 232.019, 430.986 233.475, 403.500 237.992 C 385.646 240.926, 383.220 241.481, 375.500 244.400 C 373.300 245.232, 368.913 245.932, 365.751 245.956 C 361.650 245.987, 356.214 247.289, 346.781 250.500 C 335.190 254.445, 332.570 254.988, 325.530 254.900 C 312.309 254.736, 312.894 255.171, 304.018 238.911 C 294.579 221.619, 286.848 216.450, 260.952 210.116 C 249.986 207.434, 245.414 205.893, 245.204 204.808 C 244.810 202.780, 240.690 200.988, 234.825 200.293 C 230.433 199.773, 229.825 199.975, 227.127 202.864 C 224.258 205.935, 224.008 206, 215.085 206 L 205.972 206 208.607 202.018 C 211.088 198.268, 211.224 196.916, 209.529 192.809 C 208.989 191.500, 209.921 190.564, 213.666 188.658 C 216.369 187.281, 222.027 182.549, 226.500 177.925 C 235.737 168.374, 242.382 163, 244.954 163 C 245.945 163, 247.373 163.752, 248.128 164.671 C 250.512 167.573, 258.287 172, 261 172 C 263.312 172, 267.712 169.570, 274.737 164.415 C 276.698 162.976, 278.103 162.907, 286.095 163.852 C 291.763 164.522, 296.501 165.688, 298.610 166.933 C 302.602 169.288, 304.771 168.760, 305.660 165.218 C 306.653 161.263, 302.813 158.670, 292.900 156.601 C 280.997 154.116, 281.205 154.210, 280.493 150.968 C 280.138 149.351, 278.531 147.090, 276.922 145.944 C 272.483 142.783, 271.498 140.339, 274.101 138.946 C 275.789 138.043, 276.886 138.162, 279.417 139.525 C 282.397 141.130, 283.266 141.138, 292.646 139.653 C 298.168 138.778, 307.021 137.758, 312.320 137.385 C 323.678 136.587, 325.256 135.505, 325.404 128.413 C 325.520 122.863, 322.748 120, 317.260 120 C 313.391 120, 291.469 115.310, 288.872 113.927 C 286.932 112.894, 286.045 109.110, 287.084 106.302 C 287.683 104.682, 298.857 95.608, 313.242 85.059 C 314.974 83.790, 315.316 83.813, 316.124 85.257 C 316.628 86.157, 318.196 88.268, 319.609 89.947 C 325.820 97.329, 338.135 91.494, 343.514 78.622 C 345.755 73.256, 346.520 63.106, 345.024 58.573 C 342.276 50.247, 333.036 44.020, 325.522 45.430 C 315.847 47.245, 307 62.662, 307 77.707 C 307 83.401, 306.495 83.989, 293 94.001 C 282.027 102.142, 282.796 101.318, 282.086 105.684 C 281.477 109.433, 281.380 109.503, 271.937 112.985 C 266.694 114.918, 261.863 116.864, 261.202 117.309 C 260.394 117.853, 260 121.545, 260 128.559 L 260 139 255.250 139.024 C 248.846 139.057, 242.612 140.590, 236.542 143.623 C 230.486 146.650, 227.492 149.353, 220.341 158.250 C 215.776 163.928, 214.429 165, 211.857 165 C 207.745 165, 201.991 159.353, 202.023 155.350 C 202.058 151.066, 207.002 142.828, 210.924 140.517 C 216.276 137.364, 220.837 132.278, 222.104 128.049 C 224.104 121.372, 222.969 119.639, 211.727 112.205 L 201.500 105.442 200.968 99.471 C 200.588 95.210, 199.483 91.848, 197.110 87.729 C 193.343 81.191, 193.354 80.781, 197.681 65.624 C 199.472 59.353, 200.029 55.584, 199.581 52.782 C 198.202 44.159, 192.448 37.052, 185.219 35.044 C 183.174 34.476, 181.275 34.049, 181 34.096 C 180.725 34.142, 179.091 34.589, 177.368 35.088 M 267.500 139 C 270.252 140.183, 271.231 140.183, 270.500 139 C 270.160 138.450, 268.896 138.032, 267.691 138.070 C 265.579 138.138, 265.572 138.171, 267.500 139 M 261 150.941 C 261 152.426, 262.033 152.727, 269.750 153.488 C 275.835 154.088, 277 153.963, 277 152.708 C 277 151.887, 276.288 150.941, 275.418 150.607 C 272.881 149.633, 261 149.908, 261 150.941 M 126 178.588 C 126 178.911, 128.137 181.111, 130.750 183.478 C 135.486 187.768, 135.500 187.800, 135.446 194.140 C 135.381 201.906, 132.869 207.245, 126.862 212.386 C 124.548 214.367, 122.885 216.218, 123.167 216.500 C 123.448 216.782, 125.664 215.933, 128.089 214.614 C 148.335 203.604, 149.879 202.252, 150.719 194.797 C 151.132 191.138, 150.808 189.898, 148.859 187.676 C 145.464 183.804, 126 176.066, 126 178.588 M 114.755 182.578 C 113.983 183.350, 114.700 188.263, 117.224 199.500 C 119.837 211.138, 120.467 212.356, 123.134 210.928 C 125.625 209.595, 130.995 198.454, 131.708 193.141 C 132.355 188.314, 129.900 185.702, 123.166 184.052 C 120.600 183.424, 117.792 182.700, 116.928 182.444 C 116.063 182.188, 115.085 182.248, 114.755 182.578 M 160 193.048 C 160 193.482, 162.920 194.809, 166.489 195.996 C 170.058 197.184, 173.228 198.560, 173.534 199.055 C 174.108 199.984, 161.571 223.248, 153.554 236.131 C 151.049 240.155, 149 243.982, 149 244.635 C 149 245.288, 150.437 247.031, 152.192 248.508 C 155.203 251.042, 155.459 251.093, 156.692 249.406 C 157.412 248.423, 158 245.452, 158 242.804 C 158 238.921, 159.049 235.981, 163.427 227.595 C 166.413 221.877, 171.138 213.518, 173.927 209.020 C 179.272 200.402, 179.774 198.859, 177.750 197.253 C 175.047 195.108, 160 191.543, 160 193.048 M 202.124 213.578 C 193.001 216.031, 183.370 221.814, 174.904 229.922 C 168.396 236.155, 166.992 238.042, 166.996 240.554 C 167.001 244.608, 171.429 251.250, 178.630 258.008 C 181.859 261.037, 186.619 265.500, 189.209 267.926 L 193.917 272.335 203.709 270.162 C 218.478 266.884, 229.999 265.913, 245.406 266.649 C 256.346 267.172, 259.148 267.049, 258.546 266.074 C 257.325 264.099, 250.445 261.534, 237 258.042 C 222.549 254.289, 221.720 253.929, 216.884 249.310 L 213.268 245.856 196.507 245.947 C 187.288 245.998, 179.333 246.294, 178.829 246.606 C 177.022 247.722, 174.846 244.749, 175.514 242.074 C 177.277 235.004, 187.847 226.862, 200.808 222.590 C 213.498 218.408, 218.857 218.336, 233.464 222.156 L 237.428 223.192 230.464 226.453 C 221.552 230.627, 218.415 233.946, 218.882 238.711 C 218.947 239.378, 220.912 240.425, 223.250 241.038 C 228.949 242.534, 249.267 252.522, 260.970 259.580 C 271.081 265.678, 274.718 266.465, 278.213 263.314 C 279.916 261.779, 280.147 260.634, 279.719 255.874 C 279.162 249.694, 273.390 236.372, 268.268 229.445 C 261.527 220.327, 237.093 211.940, 217.643 212.066 C 212.064 212.102, 205.081 212.782, 202.124 213.578 M 205.500 225.491 C 204.950 225.675, 203.150 226.161, 201.500 226.571 C 198.975 227.198, 199.838 227.518, 206.943 228.590 C 213.181 229.531, 215.924 229.574, 217.443 228.757 C 218.575 228.149, 221.300 227.085, 223.500 226.392 C 227.264 225.208, 226.882 225.135, 217 225.146 C 211.225 225.152, 206.050 225.308, 205.500 225.491 M 185.465 232.952 C 184.346 233.405, 182.829 234.502, 182.093 235.388 C 180.874 236.857, 181.955 237, 194.296 237 C 208.410 237, 211 236.618, 211 234.540 C 211 232.487, 189.855 231.172, 185.465 232.952 M 178.355 240.518 C 178.024 241.380, 177.921 242.190, 178.126 242.317 C 178.332 242.445, 185.837 242.385, 194.804 242.186 C 206.602 241.923, 211.001 241.501, 210.721 240.661 C 210.456 239.861, 205.452 239.414, 194.646 239.224 C 181.150 238.988, 178.873 239.168, 178.355 240.518 M 465.129 241.899 C 464.001 242.614, 464.236 244.203, 466.458 250.873 C 467.943 255.332, 469.521 259.204, 469.965 259.478 C 470.409 259.753, 472.439 256.097, 474.477 251.354 C 477.429 244.482, 477.909 242.558, 476.841 241.880 C 475.090 240.771, 466.890 240.784, 465.129 241.899 M 381.721 247.883 C 376.619 249.214, 374.002 250.569, 371.143 253.361 C 368.001 256.428, 362.573 264.917, 363.299 265.628 C 363.409 265.736, 366.650 264.751, 370.500 263.438 C 374.350 262.126, 378.276 261.040, 379.224 261.026 C 380.173 261.012, 381.673 259.599, 382.559 257.886 C 383.445 256.173, 385.989 252.798, 388.212 250.386 C 392.891 245.309, 392.367 245.107, 381.721 247.883 M 144.218 251.560 C 142.297 252.905, 142.024 253.904, 142.239 258.810 C 142.471 264.123, 142.005 265.445, 135.195 278.766 C 131.184 286.613, 128.176 293.475, 128.510 294.016 C 128.844 294.557, 129.879 295, 130.810 295 C 132.010 295, 135.024 289.839, 141.176 277.250 C 150.817 257.523, 151.667 255.114, 150.050 252.093 C 148.713 249.596, 147.217 249.459, 144.218 251.560 M 343 258.212 C 327.852 263.560, 318.443 263.951, 306.919 259.710 C 301.051 257.551, 298.773 257.136, 296.833 257.874 C 293.535 259.127, 287 265.335, 287 267.214 C 287 268.578, 305.490 281.617, 312.746 285.368 C 317.540 287.848, 320.768 287.373, 329.428 282.914 C 345.257 274.763, 346.656 273.517, 351.509 263.250 C 353.915 258.163, 355.571 254.034, 355.191 254.076 C 354.811 254.118, 349.325 255.980, 343 258.212 M 89.500 256.079 C 82.426 257.631, 73.919 260.321, 73.393 261.173 C 72.536 262.560, 76.740 262.115, 89.397 259.481 C 96.054 258.095, 104.875 256.578, 109 256.110 L 116.500 255.259 105 255.230 C 98.675 255.214, 91.700 255.596, 89.500 256.079 M 118.762 256.707 C 120.006 256.946, 121.806 256.937, 122.762 256.687 C 123.718 256.437, 122.700 256.241, 120.500 256.252 C 118.300 256.263, 117.518 256.468, 118.762 256.707 M 146.594 281.250 C 143.900 285.422, 137.846 300.156, 138.318 301.388 C 138.894 302.887, 147.678 307.655, 148.447 306.886 C 148.752 306.581, 150.780 301.345, 152.955 295.250 L 156.908 284.167 153.521 281.584 C 149.376 278.422, 148.448 278.377, 146.594 281.250 M 159.603 288.072 C 158.608 291.090, 152.246 308.580, 151.583 310.121 C 150.610 312.380, 154.068 313.628, 155.578 311.563 C 156.200 310.712, 158.230 305.522, 160.089 300.029 C 163.270 290.633, 163.370 289.941, 161.772 288.343 C 160.364 286.936, 159.993 286.889, 159.603 288.072 M 298.200 294.200 C 295.688 296.712, 297.558 301, 301.165 301 C 302.135 301, 303.411 300.100, 304 299 C 306.161 294.963, 301.387 291.013, 298.200 294.200 M 192 296.029 C 192 297.340, 196.917 322.065, 197.524 323.805 C 197.849 324.737, 199.287 324.211, 202.557 321.960 C 205.075 320.228, 207.356 318.236, 207.625 317.534 C 207.895 316.832, 206.954 314.548, 205.535 312.457 C 204.117 310.366, 202.260 306.146, 201.409 303.078 C 200.559 300.010, 199.683 296.938, 199.463 296.250 C 198.985 294.756, 192 294.549, 192 296.029 M 123.250 296.736 C 121.169 297.453, 121.846 299.973, 124.436 301.153 C 127.266 302.442, 130 301.693, 130 299.629 C 130 298.070, 125.268 296.042, 123.250 296.736 M 164.094 308.957 L 158.025 316.913 163.616 324.707 C 166.692 328.993, 169.724 332.500, 170.354 332.500 C 172.101 332.500, 175.226 322.189, 175.354 316 C 175.467 310.581, 172.685 301, 170.999 301 C 170.539 301, 167.432 304.581, 164.094 308.957 M 118.446 303.087 C 117.593 304.467, 118.715 305.470, 122.500 306.711 C 128.696 308.742, 129.996 306.016, 123.980 303.609 C 119.206 301.699, 119.299 301.707, 118.446 303.087 M 301.275 304.810 C 300.331 305.409, 300.599 308.233, 302.449 317.153 C 305.877 333.685, 306.884 337, 308.480 337 C 311.127 337, 311.154 334.913, 308.642 324.217 C 307.258 318.323, 305.753 311.510, 305.297 309.078 C 304.445 304.538, 303.419 303.449, 301.275 304.810 M 340.818 309.719 C 337.915 313.058, 321 338.943, 321 340.047 C 321 342.333, 324.534 340.334, 327.281 336.494 C 342.481 315.246, 345.202 310.773, 343.788 309.359 C 342.559 308.131, 342.156 308.179, 340.818 309.719 M 115.650 309.683 C 114.914 310.419, 120.333 313, 122.615 313 C 125.356 313, 123.931 310.236, 120.875 309.625 C 116.944 308.839, 116.489 308.844, 115.650 309.683 M 239.138 313.561 C 233.989 315.993, 227.914 318.515, 225.638 319.164 C 223.291 319.833, 222.214 320.510, 223.148 320.726 C 225.332 321.231, 252 310.812, 252 309.453 C 252 308.166, 247.548 309.588, 239.138 313.561 M 245 316.076 C 241.975 317.715, 240.625 318.761, 242 318.400 C 244.976 317.618, 252 314.162, 252 313.480 C 252 312.548, 250.441 313.126, 245 316.076 M 115 314.875 C 115 315.895, 121.051 317.282, 121.881 316.453 C 122.741 315.593, 119.776 314.033, 117.250 314.015 C 116.013 314.007, 115 314.394, 115 314.875 M 97.500 318.020 C 76.714 322.181, 59.090 340.346, 53.347 363.528 C 51.024 372.905, 51.014 392.121, 53.327 401 C 59.474 424.592, 77.893 442.165, 98.071 443.688 C 112.939 444.810, 125.106 440.034, 136.580 428.572 C 146.077 419.085, 150.622 408.993, 152.375 393.500 C 152.783 389.890, 152.259 391.128, 150.489 397.951 C 146.989 411.446, 143.783 417.376, 135.577 425.537 C 120.077 440.950, 101.443 444.945, 84.355 436.518 C 70.736 429.802, 61.337 418.768, 56.299 403.578 C 53.924 396.419, 53.619 393.965, 53.619 382 C 53.619 370.046, 53.924 367.584, 56.284 360.500 C 63.373 339.218, 79.434 323.970, 98 320.895 C 108.393 319.174, 109 319.014, 109 317.981 C 109 316.844, 103.278 316.863, 97.500 318.020 M 236 320 C 235.175 320.533, 234.950 320.969, 235.500 320.969 C 236.050 320.969, 237.175 320.533, 238 320 C 238.825 319.467, 239.050 319.031, 238.500 319.031 C 237.950 319.031, 236.825 319.467, 236 320 M 241.500 322.545 C 229.166 327.301, 227.659 327.993, 228.282 328.616 C 228.914 329.247, 251.044 321.286, 252.450 319.922 C 254.258 318.167, 250.548 319.056, 241.500 322.545 M 229.500 322.464 C 227.850 323.219, 227.175 323.858, 228 323.883 C 228.825 323.909, 230.625 323.286, 232 322.500 C 235.183 320.680, 233.450 320.655, 229.500 322.464 M 100.726 326.932 C 92.474 329.023, 91.672 329.706, 92.938 333.563 C 93.468 335.178, 94.392 338.413, 94.990 340.750 C 95.624 343.227, 96.665 345, 97.488 345 C 99.500 345, 103.487 339.404, 105.966 333.100 C 109.049 325.259, 108.745 324.901, 100.726 326.932 M 213.156 325.903 C 212.426 326.355, 211.906 327.123, 212.001 327.612 C 212.095 328.100, 209.404 330.019, 206.020 331.876 L 199.867 335.253 200.536 339.376 C 200.905 341.644, 201.497 343.784, 201.853 344.131 C 202.209 344.478, 205.425 344.387, 209 343.928 C 216.885 342.917, 218.058 343.211, 220.200 346.741 C 221.715 349.238, 221.939 349.321, 222.591 347.625 C 223.079 346.351, 222.757 345.443, 221.581 344.786 C 219.945 343.870, 219.945 343.718, 221.582 341.909 C 223.241 340.076, 223.205 340, 220.655 340 C 217.778 340, 217.078 338.568, 219.500 337.638 C 221.818 336.749, 221.422 333.731, 219.084 334.473 C 217.014 335.130, 215.315 333.542, 216.984 332.510 C 219.015 331.255, 218.076 329.168, 215.750 329.767 C 213.725 330.289, 213.641 330.175, 214.908 328.631 C 216.525 326.660, 215.220 324.628, 213.156 325.903 M 236 330.177 C 234.625 330.750, 232.429 331.636, 231.121 332.147 C 229.812 332.657, 228.985 333.318, 229.283 333.616 C 229.908 334.241, 241.031 331.029, 242.450 329.814 C 243.799 328.658, 238.996 328.929, 236 330.177 M 89 332.398 C 89 333.167, 90.153 335.754, 91.563 338.148 L 94.125 342.500 93.435 339 C 92.431 333.904, 91.193 331, 90.025 331 C 89.461 331, 89 331.629, 89 332.398 M 111.805 332.025 C 108.364 334.081, 88.913 374.341, 88.626 380 C 88.518 382.139, 88.987 382.547, 91.869 382.822 C 95.855 383.204, 100.129 381.625, 101.634 379.215 C 102.227 378.265, 105.060 371.944, 107.929 365.167 C 110.799 358.390, 114.914 349.191, 117.073 344.725 C 119.233 340.260, 121 336.075, 121 335.425 C 121 332.623, 114.702 330.294, 111.805 332.025 M 131 331.804 C 131 332.246, 132.603 334.158, 134.563 336.054 C 139.839 341.156, 144.531 348.717, 146.900 355.935 C 148.055 359.452, 148.998 362.818, 148.995 363.415 C 148.992 364.012, 146.890 365.181, 144.324 366.013 C 138.969 367.750, 138.049 369.205, 140.812 371.571 C 142.531 373.043, 142.604 373.535, 141.435 375.788 C 139.604 379.318, 141.095 381.683, 146.653 384.066 C 149.135 385.130, 151.354 386, 151.583 386 C 152.536 386, 151.893 374.310, 150.440 365.239 C 149.383 358.637, 147.790 353.245, 145.495 348.500 C 141.113 339.440, 131 327.791, 131 331.804 M 390.695 334.096 C 385.474 335.325, 377 339.054, 377 340.123 C 377 341.556, 379.518 341.148, 387.729 338.385 C 394.582 336.078, 396.648 335.824, 405.216 336.231 C 413.524 336.626, 415.844 337.143, 421.216 339.798 C 442.196 350.166, 455.463 379.547, 450.751 405.205 C 447.730 421.658, 438.608 435.139, 425.792 442.088 C 419.886 445.291, 418.916 445.500, 409.985 445.500 C 401.289 445.500, 399.911 445.224, 393.985 442.292 C 390.418 440.527, 385.116 436.986, 382.202 434.423 C 379.289 431.859, 376.652 430.015, 376.342 430.324 C 375.109 431.558, 386.559 442.123, 392.164 444.924 C 400.966 449.322, 407.768 450.582, 415.225 449.195 C 437.925 444.974, 454 422.162, 454 394.170 C 454 384.221, 449.950 369.266, 444.835 360.325 C 436.916 346.485, 427.284 337.868, 416.068 334.588 C 410.188 332.869, 396.999 332.613, 390.695 334.096 M 83.992 336.282 C 79.401 340.343, 71 351.443, 71 353.448 C 71 354.535, 72.237 356.475, 73.750 357.758 L 76.500 360.092 73.157 358.472 C 71.318 357.581, 69.677 356.998, 69.510 357.176 C 69.342 357.354, 68.508 359.863, 67.656 362.750 L 66.108 368 68.804 368.118 C 71.488 368.236, 71.486 368.240, 68.508 368.877 C 64.977 369.632, 64.297 371.780, 64.118 382.750 C 63.996 390.231, 64.429 390.911, 68.066 388.965 C 70.758 387.524, 70.480 388.673, 67.501 391.298 C 65.681 392.902, 65.169 394.112, 65.617 395.750 C 66.371 398.504, 67.417 398.583, 69.923 396.077 C 71.389 394.611, 71.966 394.470, 72.355 395.484 C 72.662 396.282, 71.694 397.298, 69.933 398.028 C 68.320 398.696, 67 399.318, 67 399.410 C 67 400.495, 70.956 410.356, 71.683 411.083 C 73.191 412.591, 78.275 408.160, 77.674 405.862 C 77.406 404.837, 77.595 404.249, 78.093 404.558 C 79.579 405.476, 79.144 407.122, 76.500 410.589 C 75.125 412.392, 74.003 414.459, 74.006 415.183 C 74.012 416.716, 84.617 428, 86.051 428 C 86.583 428, 88.461 425.075, 90.224 421.500 C 91.987 417.925, 93.701 415, 94.033 415 C 94.365 415, 93.163 418.038, 91.362 421.750 C 89.561 425.462, 88.068 428.782, 88.044 429.127 C 87.979 430.054, 97.549 434, 99.862 434 C 100.957 434, 102.059 433.212, 102.311 432.250 C 102.720 430.684, 102.780 430.697, 102.884 432.374 C 102.986 434.016, 103.648 434.191, 108.250 433.785 C 114.302 433.252, 126.972 428.123, 126.989 426.200 C 126.995 425.486, 126.292 423.531, 125.426 421.857 C 124.561 420.184, 124.050 418.617, 124.292 418.375 C 124.533 418.133, 125.290 419.285, 125.973 420.935 C 128.141 426.169, 129.662 426.690, 133.165 423.402 C 137.855 419.001, 141.948 413.029, 141.348 411.465 C 140.609 409.538, 124.987 398, 123.117 398 C 121.919 398, 121.858 397.742, 122.826 396.774 C 123.794 395.806, 123.587 395.197, 121.842 393.881 C 119.688 392.256, 119.556 392.327, 116.671 396.682 C 114.648 399.737, 113.468 400.757, 112.941 399.905 C 112.344 398.938, 111.606 399.028, 109.656 400.306 C 108.273 401.212, 105.348 402.240, 103.157 402.591 C 100.428 403.027, 99.018 403.822, 98.680 405.114 C 98.409 406.151, 97.669 407, 97.035 407 C 96.401 407, 96.135 406.591, 96.444 406.090 C 97.376 404.582, 95.900 402, 94.105 402 C 93.181 402, 90.209 399.750, 87.500 397 C 84.791 394.250, 82.022 392, 81.347 392 C 79.439 392, 78.701 393.935, 80.008 395.510 C 80.658 396.293, 80.975 397.510, 80.714 398.216 C 80.430 398.982, 79.817 398.442, 79.192 396.877 C 77.281 392.086, 77.410 390.657, 79.867 389.405 L 82.234 388.199 79.664 386.515 C 77.695 385.226, 77.141 384.090, 77.297 381.666 C 77.409 379.925, 77.929 378.192, 78.454 377.815 C 79.038 377.396, 78.886 376.155, 78.062 374.615 C 77.004 372.639, 76.965 371.500, 77.879 369.300 C 79.247 366.005, 84.697 362, 87.812 362 C 89.015 362, 90 361.550, 90 361 C 90 360.450, 89.325 360, 88.500 360 C 85.755 360, 86.951 358.326, 91 356.500 C 95.427 354.504, 96.190 353, 92.777 353 L 90.555 353 92.777 351.443 C 94 350.587, 95 349.168, 95 348.289 C 95 346.393, 88.213 333.986, 87.201 334.032 C 86.815 334.049, 85.372 335.061, 83.992 336.282 M 235.150 336.123 C 231.658 337.229, 229.051 338.384, 229.356 338.690 C 230.030 339.363, 243.111 336.028, 244.450 334.842 C 246.056 333.419, 241.867 333.996, 235.150 336.123 M 279 337.334 C 274.325 339.131, 269.150 341.332, 267.500 342.224 C 264.802 343.683, 264.692 343.921, 266.404 344.589 C 268.548 345.426, 273.941 344.389, 285.138 340.986 C 291.892 338.934, 293.148 338.819, 295.980 339.992 C 307.548 344.783, 311.083 375.816, 301.509 388.536 C 298.413 392.650, 291.939 396.999, 287.378 398.027 C 285.090 398.543, 277.356 398.339, 267.563 397.504 C 258.728 396.750, 244.075 395.832, 235 395.465 C 223.633 395.004, 217.814 394.363, 216.296 393.405 C 213.909 391.899, 210.542 382.398, 207.557 368.744 C 205.576 359.684, 202.960 356.027, 195.903 352.451 C 190.594 349.760, 190 349.599, 190 350.841 C 190 351.304, 192.163 352.859, 194.806 354.298 C 197.449 355.736, 200.361 357.742, 201.278 358.754 C 202.194 359.767, 204.594 366.874, 206.612 374.548 C 210.859 390.704, 212.952 395.407, 216.776 397.384 C 219.891 398.995, 230.224 400.315, 256.810 402.497 C 281.085 404.490, 288.495 404.415, 293.500 402.129 C 298.546 399.824, 305.545 392.265, 308.272 386.176 C 311.169 379.705, 311.738 366.749, 309.590 356.149 C 305.153 334.248, 298.181 329.960, 279 337.334 M 124.345 339.257 C 123.160 341.041, 120.761 345.372, 119.014 348.883 C 115.656 355.630, 115.912 357.387, 120.367 358.171 C 122.480 358.543, 122.480 358.543, 127.984 347.116 C 131.101 340.646, 131.764 338.421, 130.889 337.366 C 129.027 335.122, 126.633 335.814, 124.345 339.257 M 129.179 346.895 C 126.880 351.208, 125 355.081, 125 355.502 C 125 355.922, 127.472 353.169, 130.494 349.383 C 133.516 345.597, 135.991 342.218, 135.994 341.872 C 135.997 341.527, 135.405 340.751, 134.679 340.148 C 133.639 339.285, 132.468 340.722, 129.179 346.895 M 237.072 340.880 C 233.537 341.807, 230.462 343.113, 230.239 343.783 C 229.703 345.392, 231.164 345.296, 239.432 343.181 C 243.245 342.205, 246.545 340.865, 246.766 340.203 C 247.285 338.644, 244.982 338.805, 237.072 340.880 M 313.623 345.801 C 312.371 347.827, 318.660 348.574, 349 349.998 C 377.536 351.337, 395.652 352.783, 406 354.546 C 420.725 357.054, 422.751 356.181, 411.500 352.174 C 405.022 349.867, 393.345 348.791, 355.500 347.014 C 343.950 346.471, 329.949 345.739, 324.388 345.387 C 317.701 344.963, 314.054 345.103, 313.623 345.801 M 78.307 348.573 C 79.166 350.263, 80.627 352.276, 81.555 353.046 C 82.483 353.816, 82.037 352.670, 80.564 350.499 C 77.083 345.370, 76.371 344.762, 78.307 348.573 M 409.667 347.667 C 408.428 348.905, 408.989 349.753, 411.750 350.816 C 417.722 353.116, 420.428 353.160, 421.784 350.982 C 422.490 349.847, 422.801 348.487, 422.475 347.959 C 421.810 346.883, 410.704 346.629, 409.667 347.667 M 252.467 351.405 C 240.818 356.705, 236.623 369.788, 243.325 379.915 C 246.697 385.010, 256.116 391.146, 261.496 391.752 C 267.253 392.401, 268.170 390.432, 262.474 389.651 C 257.250 388.935, 250.155 385.568, 249.328 383.412 C 248.431 381.074, 249.397 380.850, 253.314 382.487 C 255.306 383.319, 258.716 384, 260.891 384 C 268.540 384, 274.935 375.473, 274.978 365.218 C 275.037 351.074, 265.737 345.367, 252.467 351.405 M 423.534 350.963 C 422.491 352.114, 422.025 353.623, 422.405 354.613 C 422.982 356.118, 423.319 356.049, 425.526 353.975 C 428.227 351.438, 428.780 349, 426.655 349 C 425.915 349, 424.511 349.883, 423.534 350.963 M 315.411 352.750 C 316.420 355.990, 317.960 368.458, 317.980 373.556 L 318 378.612 333.250 387.274 C 353.027 398.507, 353.331 398.607, 363.411 397.095 C 376.635 395.113, 375.732 395.602, 376.956 389.749 C 377.559 386.862, 378.462 383.845, 378.963 383.044 C 379.691 381.879, 375.239 379.196, 356.686 369.616 C 334.548 358.185, 319.025 351.058, 316.183 351.018 C 315.384 351.007, 315.080 351.689, 315.411 352.750 M 249.053 356.578 C 247.456 359.096, 245.845 362.957, 245.473 365.158 C 244.646 370.052, 245.655 377.469, 247.337 378.865 C 248.308 379.671, 248.568 377.798, 248.538 370.197 C 248.506 362.049, 248.857 359.821, 250.734 356.250 C 253.688 350.631, 252.702 350.823, 249.053 356.578 M 277.471 353.500 C 281.713 363.972, 281.590 372.566, 277.068 381.530 C 274.733 386.160, 274.606 386.767, 276.282 385.278 C 277.383 384.300, 279.340 381.250, 280.632 378.500 C 284.432 370.409, 283.427 357.427, 278.677 353.266 C 276.733 351.563, 276.690 351.571, 277.471 353.500 M 428.083 354.244 L 424.728 356.369 427.420 358.684 C 430.862 361.646, 433.209 361.612, 434.614 358.581 C 435.773 356.080, 435.530 355.301, 432.970 353.310 C 431.749 352.360, 430.761 352.549, 428.083 354.244 M 86.750 353.662 C 87.438 353.940, 88.563 353.940, 89.250 353.662 C 89.938 353.385, 89.375 353.158, 88 353.158 C 86.625 353.158, 86.063 353.385, 86.750 353.662 M 133.906 354.757 C 130.317 357.168, 125 361.753, 125 362.435 C 125 364.059, 128.946 362.643, 131.092 360.250 C 137.809 352.759, 138.297 351.805, 133.906 354.757 M 138.714 359.485 C 134.315 363.534, 134.083 363.974, 135.844 364.916 C 138.342 366.253, 146.372 364.024, 146.785 361.879 C 147.153 359.968, 145.324 354.986, 144.275 355.040 C 143.849 355.062, 141.346 357.062, 138.714 359.485 M 435.791 361.559 C 434.713 363.926, 434.958 364.415, 439.062 368.066 C 444.426 372.838, 445.281 371.462, 441.541 364.081 C 438.645 358.366, 437.479 357.854, 435.791 361.559 M 111.623 362.540 C 110.722 364.888, 110.788 365, 113.073 365 C 114.471 365, 115.041 364.457, 114.823 363.333 C 114.381 361.050, 112.385 360.555, 111.623 362.540 M 389.209 364.566 C 386.791 366.260, 382.499 373.833, 383.430 374.764 C 383.744 375.077, 384 374.843, 384 374.243 C 384 371.821, 389.335 366.987, 393.138 365.963 C 403.965 363.047, 416.132 375.193, 417.711 390.492 C 418.976 402.747, 411.414 412.631, 399.290 414.570 C 393.400 415.511, 388.898 413.166, 384.976 407.112 C 383.155 404.302, 381.455 402.212, 381.199 402.468 C 380.096 403.571, 386.131 413.646, 388.859 415.258 C 392.761 417.563, 401.318 417.493, 406.556 415.114 C 411.549 412.846, 417.289 406.317, 418.839 401.142 C 423.931 384.147, 411.560 363, 396.527 363 C 393.533 363, 390.526 363.643, 389.209 364.566 M 444.079 375.583 C 444.127 376.748, 444.364 376.985, 444.683 376.188 C 444.972 375.466, 444.936 374.603, 444.604 374.271 C 444.272 373.939, 444.036 374.529, 444.079 375.583 M 121.200 377.200 C 119.748 378.652, 119.644 380.662, 120.979 381.487 C 122.584 382.479, 126 380.082, 126 377.965 C 126 375.743, 123.116 375.284, 121.200 377.200 M 399.500 380 C 399.160 380.550, 399.162 381.453, 399.504 382.007 C 400.410 383.473, 397.070 384.470, 395.733 383.133 C 393.945 381.345, 392 381.809, 392 384.025 C 392 385.282, 392.980 386.422, 394.584 387.032 C 397.365 388.089, 398.294 387.787, 401.711 384.713 C 403.435 383.162, 403.703 382.314, 402.926 380.862 C 401.827 378.808, 400.451 378.462, 399.500 380 M 123.110 384.367 C 121.402 386.426, 124.393 388.749, 126.500 387 C 127.325 386.315, 128 385.135, 128 384.378 C 128 382.599, 124.584 382.592, 123.110 384.367 M 383.258 384.275 C 383.720 385.660, 390 387.149, 390 385.874 C 390 385.393, 389.885 385, 389.743 385 C 389.602 385, 387.997 384.573, 386.177 384.051 C 383.738 383.351, 382.970 383.410, 383.258 384.275 M 139.718 388.037 C 137.980 392.461, 137.915 392.377, 143.893 393.417 C 149.648 394.418, 152.406 389.563, 147.750 386.627 C 142.711 383.449, 141.431 383.674, 139.718 388.037 M 387.362 392.500 C 385.830 396.490, 390.264 398.593, 393.463 395.394 C 394.703 394.154, 394.805 393.470, 393.912 392.394 C 392.375 390.542, 388.086 390.612, 387.362 392.500 M 400.667 391.667 C 399.397 392.936, 400.007 396.789, 401.572 397.389 C 403.511 398.133, 407 396.382, 407 394.665 C 407 391.930, 402.523 389.811, 400.667 391.667 M 130.601 395.351 L 125.702 396.564 130.601 400.566 C 136.812 405.639, 142.717 410, 143.376 410 C 144.091 410, 148.477 396.144, 147.933 395.600 C 146.773 394.440, 134.962 394.270, 130.601 395.351 M 82.510 401.016 C 82.856 401.575, 83.557 401.774, 84.069 401.457 C 85.456 400.600, 85.198 400, 83.441 400 C 82.584 400, 82.165 400.457, 82.510 401.016 M 391 402.441 C 391 404.495, 393.070 405.504, 394.046 403.926 C 394.498 403.194, 394.646 402.237, 394.375 401.798 C 393.535 400.438, 391 400.921, 391 402.441 M 443.523 406.533 C 439.223 410.152, 439.191 410.508, 443.075 411.483 C 445.409 412.069, 445.760 411.746, 446.892 407.967 C 447.578 405.678, 447.995 403.666, 447.819 403.496 C 447.644 403.326, 445.711 404.692, 443.523 406.533 M 121.202 412.478 C 122.398 414.941, 123.549 416.785, 123.758 416.575 C 124.211 416.123, 120.170 408, 119.493 408 C 119.236 408, 120.005 410.015, 121.202 412.478 M 436.200 413.200 C 434.086 415.314, 434.893 416, 439.500 416 C 444.461 416, 445.426 414.493, 441.435 412.975 C 438.149 411.726, 437.653 411.747, 436.200 413.200 M 106.986 414.050 C 106.979 414.848, 106.715 416.625, 106.400 418 C 105.991 419.781, 106.105 420.106, 106.796 419.130 C 107.589 418.010, 107.967 418.102, 108.866 419.630 C 109.758 421.146, 109.849 420.838, 109.351 418 C 108.704 414.323, 107.010 411.493, 106.986 414.050 M 427.583 417.866 C 426.936 418.912, 432.796 430, 433.996 430 C 434.461 430, 436.679 427.413, 438.925 424.250 C 442.935 418.603, 442.968 418.488, 440.754 417.850 C 437.354 416.869, 428.192 416.880, 427.583 417.866 M 419.537 419.548 C 417.409 420.280, 414.662 422.050, 413.431 423.481 C 412.201 424.913, 411.031 425.592, 410.830 424.990 C 410.584 424.252, 408.308 424.118, 403.832 424.576 C 397.478 425.227, 397.174 425.381, 396.604 428.231 C 395.831 432.095, 396.374 432.835, 401.712 435.197 C 406.635 437.374, 406.973 437.253, 408.700 432.678 C 409.884 429.540, 409.892 429.554, 409.322 433.750 C 408.751 437.950, 408.780 438, 411.806 438 C 414.378 438, 414.934 437.560, 415.284 435.250 L 415.700 432.500 415.850 435.250 C 416.034 438.621, 417.406 438.717, 424.315 435.842 C 432.608 432.390, 432.721 432.133, 429.009 425.169 C 427.240 421.850, 425.256 418.928, 424.599 418.676 C 423.943 418.425, 421.665 418.817, 419.537 419.548 M 104.091 425.091 C 103.415 427.348, 103.045 429.379, 103.270 429.604 C 103.495 429.829, 104.233 428.166, 104.909 425.909 C 105.585 423.652, 105.955 421.621, 105.730 421.396 C 105.505 421.171, 104.767 422.834, 104.091 425.091 M 110.079 423.583 C 110.127 424.748, 110.364 424.985, 110.683 424.188 C 110.972 423.466, 110.936 422.603, 110.604 422.271 C 110.272 421.939, 110.036 422.529, 110.079 423.583 M 389 425.845 C 389 427.046, 392.433 430, 393.829 430 C 394.473 430, 395 429.587, 395 429.082 C 395 428.577, 395.273 427.452, 395.607 426.582 C 396.091 425.320, 395.485 425, 392.607 425 C 390.623 425, 389 425.380, 389 425.845 M 414.079 426.583 C 414.127 427.748, 414.364 427.985, 414.683 427.188 C 414.972 426.466, 414.936 425.603, 414.604 425.271 C 414.272 424.939, 414.036 425.529, 414.079 426.583" stroke="none" fill="black" fill-rule="evenodd"/>
</svg>